<mxfile host="app.diagrams.net" modified="2023-12-04T01:05:25.276Z" agent="Mozilla/5.0 (Windows NT 10.0; Win64; x64) AppleWebKit/537.36 (KHTML, like Gecko) Chrome/119.0.0.0 Safari/537.36 Edg/119.0.0.0" etag="5Lx32ooF3d-XIgS7Cz7f" version="22.1.5" type="device" pages="4">
  <diagram name="Страница — 1" id="o3sYmgAIau1fM3dsohi6">
    <mxGraphModel dx="2165" dy="1120" grid="1" gridSize="10" guides="1" tooltips="1" connect="1" arrows="1" fold="1" page="1" pageScale="1" pageWidth="3300" pageHeight="2339" math="0" shadow="0">
      <root>
        <mxCell id="0" />
        <mxCell id="1" parent="0" />
        <mxCell id="QvXpTpCXxzrsCJCGJff7-54" value="" style="shape=image;imageAspect=0;aspect=fixed;verticalLabelPosition=bottom;verticalAlign=top;image=data:image/png,iVBORw0KGgoAAAANSUhEUgAAA48AAALnCAYAAAApuXKMAAAAAXNSR0IArs4c6QAACfF0RVh0bXhmaWxlACUzQ214ZmlsZSUyMGhvc3QlM0QlMjJhcHAuZGlhZ3JhbXMubmV0JTIyJTIwbW9kaWZpZWQlM0QlMjIyMDIzLTEyLTA0VDAxJTNBMDAlM0ExNi41OTRaJTIyJTIwYWdlbnQlM0QlMjJNb3ppbGxhJTJGNS4wJTIwKFdpbmRvd3MlMjBOVCUyMDEwLjAlM0IlMjBXaW42NCUzQiUyMHg2NCklMjBBcHBsZVdlYktpdCUyRjUzNy4zNiUyMChLSFRNTCUyQyUyMGxpa2UlMjBHZWNrbyklMjBDaHJvbWUlMkYxMTkuMC4wLjAlMjBTYWZhcmklMkY1MzcuMzYlMjBFZGclMkYxMTkuMC4wLjAlMjIlMjBldGFnJTNEJTIybk5lOEtpbVk2MmF1VGZONnpPU2UlMjIlMjB2ZXJzaW9uJTNEJTIyMjIuMS41JTIyJTIwdHlwZSUzRCUyMmRldmljZSUyMiUyMHBhZ2VzJTNEJTIyMiUyMiUzRSUzQ2RpYWdyYW0lMjBpZCUzRCUyMlkweTNjS3YtNEEyYUlNSElhMGtpJTIyJTIwbmFtZSUzRCUyMlBhZ2UtMSUyMiUzRTdadmJtNW82RU1EJTJGR2g1M1A1SWdsMGRVOW5KTzFmTzViTnRYS2xubE93Z2VqTlh0WDk4UXdzMmtMVzJKVnZmNGdIRUl0OTlNaHBsazFOQm9mYmpQZ3MxcWtvWTQxcUFlSGpRMDFpQ0VobVhRcjF6eVdraUFZJTJCaUZaSmxGSVpmVmdxZm9DJTJCYkNzdHN1Q3ZHMjFaR2thVXlpVFZ1NFNKTUVMMGhMRm1SWnVtOTNlMG5qOWxVM3dSSUxncWRGRUl2U0QxRklWb1hVSHVpMSUyRkFGSHkxVjVaYUR6UGV1ZzdNd0YyMVVRcHZ1R0NIa2FHbVZwU29yVyUyQmpEQ2NVNnY1RkljZCUyRmVOdmRXTlpUZ2hYUTZBeFFHZmczakhuNDNmRjNrdEh6WkxkMG1JOCUyRjY2aG9iN1ZVVHcweVpZNUh2M1ZMOVV0aUxybVA0Q3RDbGVuOSUyRlNaNXdSZkdpSSUyQlAzYzQzU05TZlpLdSUyRkM5TjRPU0ZqZVBHMlJ5d2I2RzdaUzJzR3FBdGhBWEJsekJ5JTJCcnNOUVBhNEJqa1NOQlZJYWxNNzNlUUdCZUFCTnFuSkdJUGVrYXlKVm42THg2bGNacFJTWWhmZ2wxTWIzajRraWFFTzBBQVQybE50akowcG9EdSUyQmNtalg3cnJhOGdWTU5Lbkl0OWpsYVFKemtGRmNYd2tDdUpvbWRDZkM4b0tVJTJGa3daeFJSTiUyQjd5SGVzb0RQUExTSlhUVnQlMkZaOUdCSzlOQ0htN090QzdaZ0EzWWdwOUNFYllHZCUyQiUyQnclMkZ6T2JNZm5XTjRuTFpkbGhzTFkwU3Nwc1N3TFllazBPMnRaakVabHVYdDR0VE9jVUpLUktUQWYyVTBkYVNNSlRtZjdzOFZCZyUyQnBJUUZXUSUyRnBkaE1SYXZna3h6VUpFaHFLckhQUVZVOEY0eXZHTCUyQlRQRzEyZGJBVEliTVRvdzBRY3dVVEdydThWQmdMQkxRQzM5QnU5R1cxVVVMJTJCckRRRFVhTVBSQlczOE01JTJGOTVZMzhlc1RXdzB6JTJGZjF6OTFMZ0NFazFhaWw1YkRoQTBPZmZlTXkyYXdUb25rSHphYnRpajZzY2lhTHk5WVllYzI4R3h1cXhTMUJwNmloeWgwM2VLMlRYT2FPcEtvN2JIUGoxaEJWMjhHUnlJUkV2WmJ4SHRPME05WmVRbWtrT2lNU29qMTNjaWUxNXlFciUyQnJqTndsNTdzQ3VTcDlQd1U1TWQyOUhITG04YnRENXVaMENibGUwaXhIVEZFJTJGek9aJTJGUDA3dlQwUHc2TlhlaXltQ0RrU0JyY29XeGJ4MVBIZnYlMkZDdkNLWG1icU1NcDVuaHpielNiVEx6cDJCdGZFVlJaZ0s4S2F1VTVtcm5hOCUyRkRkNDhqMUgyZlQ2NkVxZXdrcHBDcm1UWmVLMHVveWsyQkkwcGwlMkJRSjRybnprQlNKbnpWQWZ5WEduTUNVREtIS1k2a09mS2F0U0RsUHBJZFNERkpHZnV1V052THVDODJqV3BMcjVWdGlMVkQzOHhWV0p6NW0lMkJHUGhRWEJLRmtyazZkQXNTQXRseDAybTZDcEtXRmN0NDd4M0N6WlJ5S3BZM05RV3V1VEpWclZhNWVub3JlUm5HMmNoSHJRckxoWHc4OGVzbUdxeG5haG5aR3M2bnZmVlMwYlA1SHptaDNVb0lsaTZKN1VZRWtpbVpMUjhoVWJzWVFpSlBhZCUyQnpUVTRiU3BhSkd1bDdhazNtZkliQld6UlJZUDBZS0ZYb01NVEtjenNiZVpWVFpHQ2MwYTFWRk5sWFMzOVRBODJSNEVTRmxUd3JvTWdaTVJ4WCUyRmM4eSUyQkcycWRDa0p0b0YycjklMkZwNUE0cHo4djZqJTJGJTJCNk4lMkJSUUV6JTJCbFR4Rm44bjQ3UzRUZWlkRllDWTdDQ05NU0swTVpsUVJxVm1HV0pHbTNmYWMweUdWNDVVOWUwZ2JLeXJhcDRLOXFzNTNEUU9MWE5KVVVSemhDMVMlMkJWbzJ4QUs0M1RXdWJyRjVuWDFkdjFjNCUyRkU2cFI3WGE3R3d6aVJMdHlHWnBFS3lzcDFmcUFLaFAlMkJ2JTJGTUxCOWpiJTJCQ0lPOHIlM0MlMkZkaWFncmFtJTNFJTNDZGlhZ3JhbSUyMGlkJTNEJTIyc3RtZGhIZ2xlX3NMNEhhakpCakglMjIlMjBuYW1lJTNEJTIyJUQwJUExJUQxJTgyJUQxJTgwJUQwJUIwJUQwJUJEJUQwJUI4JUQxJTg2JUQwJUIwJTIwJUUyJTgwJTk0JTIwMiUyMiUzRW5aS3hEb0l3RUlhZnBudnRFYUtyRlhWeFluQnVhSVVtaFNPbEJ2VHBCUXRpdzBBMGFkTGslMkI3JTJGY1hTOGx3TXZ1WkVWZFhGQXFReGlWSFlFRFlXd1RzNmklMkZCdkx3WkJ0UkQzS3I1U2pOSU5WUE5jSkp1MnVwbWtCMGlNYnBPb1FaVnBYS1hNQ0V0ZGlHMmcxTjJMVVd1VnFBTkJObVNhOWF1c0pUQUVybjRLeDBYb3l0JTJCMmpuazFKTTlxZzJoWkRZZmlGSUNJc0pnMDRRMkpPQmhRZTRSWFNyMmlTWEhWZG0yUDYwV04lMkYzJTJCSCUyQkJ6JTJCT3RxdHh2TllIMzFzcjRieWY0T1pDOEFBJTNEJTNEJTNDJTJGZGlhZ3JhbSUzRSUzQyUyRm14ZmlsZSUzRYpH7K4AACAASURBVHhe7N1/rD1FfT/+NW1ttQiWWIUAxg+0lZIKKrEplNhWBNsmtgiBYlUEtIAIBItQBMEWEAmVmiAK/kIFVJSoJP5hBalWEaz4C2moGqE2QEGbYEVIWxvz/uS13+/cz9x977nn3Ht3zj1z9nET45t7z9nZeczs2fPcmZ19XOOHAAECBAgQIECAAAECBAhMEXgcIQIECBAgQIAAAQIECBAgME0gwuO2aS/ydwIECBAgQIAAAQIECBAYt0AbHrdtkx832g0e97jHBeBG3+59BAgQmCgQny/z+PEZNg9lZWyVgPP0VsnXWe7Y+svY6ltnr1ycvY7+Ijxusj0cdJsE9HYCBIRHfYBAQQHn6YK4S7jpsfWXsdV3CbvsXKskPA7A7aAbANEmCBDoFTDyqGMQ2LyA8/TmDce0hbH1l7HVd0x9uURdhccBVB10AyDaBAECwqM+QKCQgPN0Idgl3ezY+svY6ruk3XZu1RIeB6B20A2AaBMECAiP+gCBQgLO04Vgl3Szff3lb//2b5uzzjprVY0PO+yw5gMf+ECz0047rfr9a17zmuahhx5a+dsnPvGJ5ogjjujV+vjHP97cc8892207XnzSSSc1V155ZXHlbn27+3vppZc2Z5555qr9WOs19913X1vf/ffff9X+h+G9997bXHLJJc2xxx7b3HjjjdvVLUzf/OY3t3+/4447Vv19r732aq699trmwQcfbL3i3wcccED7mttvv715xSte0cS+3nzzzc1VV1213baf97znNeG9xx57FDdd5gKExwFa10lpAESbIEBAeNQHCBQScJ4uBLukm50UHm+77bZVYbEbElOIiQATPxFwUrhJVPGe+MlDYYSq7rbnSZvXN0JhHsx+/OMft0HuwAMPXAmQsb833HDDShBLr9lll13aeqXw+PDDD68KeCk85nWP0Hfaaac1l19++YpVev/ZZ5/dHH744b0UuVm8oLuP8btZtjNP52UpS3gcoCWdlAZAtAkCBIRHfYBAIQHn6UKwS7rZWcNjXziJUJN+YpStO3K4yOGxLyimQHz++ec3V199dVu1448/vrngggtWBeOwSL/ffffd239HmHz00UdXAveQ4THf19invvDdbZ98H7uhfkm7cpFqCY8DsPZ9yPRdjZp0BWS9w/jdKzF9B+Ms0wm60wEmTb/oEkXdutMB5j0VIH1o5FMe+qZVDNC8xTbRvbqXFzTLlJFiO2bDCyUwzwVz4tjec889V64up2lAJ5544qrf5VeJu8di97MgbSOmZeU/+XSsvi9T8buYehTTkq655pqV/erbp9hud9+X4TNioTpi5TvTd55O5+S1zoWT+m+3n3dHXhJX3/vT1Lv05bXvnBrvT+e0vr93t1F58yzc7s8aHrufPdEPTjnllObkk09uIkClz8p8muQih8e+UcBu48T3k/hc7k7XzcPc0Ucf3YbHmOoa4Tmmk8YI4pDhMYXa2Hb85FNY0z4beSxzaAmPA7h2P2Ti4OubsjAtPG50GL97MM46nSAPoZOuNvXxTPrg67vCNgBv7yZe//rXt/Ppa71ylE4wUbl999131b0Es0wZKeVqu4snMM/w2P0sib74lre8pdl7772bK664or2vJ//i8Mgjj7TH4ZFHHrnSh7v9d5YpSd3PlO7FtzwYpi/jO++886p7V/LX9N1v40vE4vXtee7RWuFxrXPhLF+mox7puIh/x/S7FBb63t89RvrOqbnNIoaNebbdVpS10fAY7f3Od75z5fMy2u6QQw5ZNfVyUnt276eMesf9eZOmbQ7pkuob+59GGCfdFzgpPOZBOoXHGJ2M+xPjHseoy/XXX9/e8zjr991pgxzpu2uU3Xfvqc/9IXvJ/9tWb3ic9GHZvbLbvXk4H/npu7E4ik1Xm9dz43Ha3b4re5Ou2M1zJKz7ITNpysI8wuOkIfnudIL4wrfWCOZaHyB9H3z5h8ktt9yy6sbw9OGXX4FN/SCVs99++zWXXXZZ072amveT9Le4mve+972v+cEPfrAyApr3ve6IQ5QfP92b1aOPxIf6k5/85JUvvqmPn3DCCStXDyOg5sdEbCudHKKu8aEYH1rxJTuuNnZf3xdw0wkmrphFHWMqSHxQzzJlxI3eZT4MF3Wr8wyP3eM+joe4uBHHd5qilD7f4opy31XkcMx/P8v5JP9M6bv3pxse48vNDjvs0E6JSl9C8tdMun9o0v4uatvbr+EEZg2Ps/bf7p6lkBCj5d3R++79XOlLdvx/9N+NhMdZvuQPpze+Lc0aHrvn7L7vtt1FbxbxYkAeHvv6a94D1hse4ztQ+nyO7awnPK51z2M6Vm+66aZ29w499NDtFvURHsscuxsOj93RrdRA6Qr0tJt/J31ByFen6lZ50pW9eN1WdpD8Q2atKQvzCI+zTifohsfNjjymD8Njjjlm1Y3PqZ3jSmx8IEVYOvjgg1eCWbRd/C5CXJxE836RgllaGSsvI96TptJ1XfNRi9hGfuN31yf/IpxfNeuGx3wKXQqPF198cXPOOee0gXGfffZZFTbz1/eFx7zc/MrkrFe5y3wc2OoiCswzPOafX3mfjmmjcYzGsRuLEqTjOP27e2U8jrN0pfn++++fuhhCOrbjS3e+CENqj77weOGFFzbnnXfeSqjNL/z0LZywiG1rn+YnMGt47J4LZ/lMjnNQ+sId/T0feZr0/vxcFF+QU5DsE1nEsDG/ltuakmYNj/n3j7gg3f1u1XdBfxHbM9V30nfBvI9Hi8x6z2O66JiOg5jFEhf+Zh15XCs8di/q94XercwGW9Nz51PqhsPjtM7/7ne/e82Vo/rC47RGnnRlry88zvOm2PxDZq0pC0OFx+4wftQ/Xdma9YpQfMB1tzPrktB9o72T7pfs25/04RRfQHfddddVXyzXarc0ahABtTutonvfaJpf3/0g3Eh4jCkXn/zkJ9sjMoJiCo9xlStu0I4PwfxLd/f13fCYvzb+FvsUV6tjO64mz+eDr6ZS5hke8wsoBx100KoR9uijcbEknaB33HHHlSDZDY95P44v03E8du95zGcL5J8pfbNG+sJjjNbHFKi0SEJ8yYjwGRd+uqE23/6s93bX1Efs63SB9dzzmJ8LZ7lnN/8M736+zxoeu+sI5LNw+s6585xdNV13+V4xa3jsXqxOF83SDKG+MDbt+3P3sR/z0M3rO+nWmXymxyy3R3UDZhqV7X7XnOXWhq5Bd8Aq/r6RXDEP22UsY8PhMS3oMelEvJGRx/yLS/d5Mmtd2esLj/NsrPygW2vKwlDhca3ppusJj2k7s1xZzT1nmWKTnwjzPpL6TXfaapq2mYfHGPnoPgco3hfhMb+yG/uWTt7x5bZ75S//4tn16f53d9pqfOmNm7DT/6fwGP/9rGc9a2WOffrC0Pf6bnjs+zKSvgj0jdLMsy8ra/EE5h0e07EUI40R+OKzOJ9mHcdD3P8YP5NGHrvhMb8inI9Kpi9Ycdx97Wtfa++JiRH97gyUSeExD7BpumAKj/my8qlV1/p8XLyWt0dDCswy8th3Lpzl/NgX7tLFkUnvz78jrWfkcT2zhIb0G9u2JoXHtZ7zOOm7UTdoTQqPffc8zutiV7e+3UX7+gYXuq/JLwj2DQSstajUpEd19A2WxDko3Y6U3+fYt32rrZY5cjccHmN3uveW5Z180j2P6f63SeEy/5KQV3mtK3uLEh77wmFfGEqjYql+fR8k67kSk9/Hs9F7Hrsfbmt1t7XCY/eL4aQva6mdY3Qj/9DI633rrbeuGr1O9cxHP9KXz42OPKYLFnnYjQ/ANG01rv7GvZVxNTGtoBbvifCagmL6Ih1/73v9LM94mjblLr944p7HMh+Gi7rVeYfH6GsR4GJ59Ze85CXtYg3xWR9fcOP+x/h9uri30Xse86v1cZU9/0yZdKU+3UfWHZ1Pnzm77bbbynPIJp1fhMdF7eXl92uW8JhGL/Kp09PC46TAmWbHTLogmPf5WS7Ixr6lqX7pAmScq+axmEr51lm8Evr6y+Lt5XB7NLb6Dic3zi1tKjx2yfIPwI2MPK51RW2tK3uLEh77rqh369T90jTpJLDR8Nh38utejekLueu5mjlreEyjArFPb37zm5tzzz13ZRW6PDzm9y/m/Saf+pxWddx///1XFhhIXya7gbk7jWStex77+nA+9e2uu+5qRx7z+79SeIzQGPsYP2m0o+/1eXhca/Q5Tb/r3qc56Wpd6Y+stK/dK399q79197F7YSnf17jIFP0hRq26255l+fm1Llqlcmadtj7pddOmD3evuOYmuVt+Qa074pxfpc3/1p2ONu/wmEbRIyTmq0bGCsePPfZYO/Kf+nTf1KHulKdZPsu6nyndz8VJI4/5yGVcAEqmab/S50V+joiQ2bcqX+njyfa3VmDW8Ljeex6nTZXr3poRCt1jZL3hMZ3nt/Kh8lvbmuVLH1uYGlt9y/eg5S6hNzyuNdwcU4G6i4kkovyq7pD3PE67shdfIKbdL1myGdNBt54pC/lIV9+X8Vm+cKU69V39nzadoG+11fyEFtuetFzzWie6/It9BIEzzjijPVGm+5PStIz0pfruu+9uy4kbqOOZjfkX5/xLePz+uOOOa2JVrfjiFz/5lNZpq62mq7PTRh4mjQDm97Hk4TFCbczrj3rFaGSaKte97yU/Rrr3RMTful+WZ5kyUrJPT7ogM+liR3KN9+WBI9Vt0pSUaSup9dUxX2yo76JH6jcPP/xw73Of8oAZx0H3damO3UdB5O/Ln92VXzRKF0xSP0jHSj5y3V2Nt7vYUvfL6LzD46Qvpn0Xx+K13TDf95zHvoUM8tkOMdIZP/kiCmn2Snw+5itY9gX7vhAb2+tedKztWbClj/ExbX/W8NgNd/Hffffsxvkt+mv+uZ97pouYcatD/Du/53fW5zymqYJ959xJfX5MbVqyrmMLU2Orb8m+M4Zt94bHvpGO7pWy7hec7ns2MvLYHZXLw1H3ClvfPOa+QDSPRnTQbVx52gjPxrfsnZsVmGWUNN3YH8du3CPXXaZ+o+Fx1pHDbtCJixHxRS9dtEgrvXUtUkDsvi59zuUXPaZNE86dIjjliwRMC1x99+V1j4mtCI+b7TveT2DRBJynF61FFnt/xtZfxlbfxe59i793veGx72py33Sy7n2N+Q21k+55TCNOMTK51o3HiW7aVNa0sEKa1phGMtbz5XOzzeSg27ig8Lhxu9LvnBQeu202bTGr9Yyib6ROk67K9y0l3t3+Rqet5tvJ6xe/z0fsJ90vtdZMiUUYedxIO3gPgUUWcJ5e5NZZvH0bW38ZW30Xr8fVtUcTw2Nd1djavXXQba2/0ssIzBoepy1mtVZ47N7zuN6V5SaN7M168Wiz4bHvUTD5tORJ4XGtaWhhkk9lN/JYpn/b6rgEnKfH1d6bre3Y+svY6rvZ/jH29wuPA/QAB90AiDaxcAKTwmM3sE1bzKrUyGN3Kn0OOI/w2De9vzsq21f3SdPz0/533YXHhTs07FCFAs7TFTbaFu7y2PrL2Oq7hV1rKYoWHgdoRgfdAIg2sXACs9zzGPcYdhdDmSVAbXaBq2mPlikdHictVtEtt28xnfxBy32N3h3NFB4X7tCwQxUKOE9X2GhbuMtj6y9jq+8Wdq2lKFp4HKAZHXQDINrEwgn0BbzuaqvTlqmPVW6HHnmcNFV1XiOPa92H3fdontivWJVx0irF3cDZ9RIeF+7QsEMVCjhPV9hoW7jLY+svY6vvFnatpShaeBygGdNBlx4hkBYXikdKxAI+6ctjKmrWRWImPYC7u8v5M9Dyv036Yj/LQiIbYcn3Y9I+5dtNX7Rjdcx4Flb+UOVJjwlZa6QmPWMxf65iWrhpLEv050EkrGIZ+eiDp59+ejNp5dFJbZ0/KiV/Tbofb9bFrPpGJydtO8qJ7XdXLc3L75sm271Xsm/ksa9PznrPY9e1b+n+5JLXLe1XWtCre49n6pfdZ0C653Ejn0DeQ2CygC/Hesd6BMbWX8ZW3/X0Ba/dXkB4HKBX9IXHeGTBpNGGZQ2P3S/4e+65Z3PmmWdOFM7DY3oOY7x4Vp+04bSdn/zkJ82LXvSilTLTsxa//e1vN0cdddSa+zJAN1iITUwKj2984xu3e/7iQuywnZgqYORxKpEXEJgq4MvxVCIvyATG1l/GVl+dfXMCwuPm/Np3p4MuptPFT4yiffOb32ynqfVNVeu7JyyNZKQHbMcIRTy3Mn7SI1Dy0Yn8QdybGXnsPuA7H/HIR3jyfYhRwf3226+57LLLmvwRLmk/Yp/TY1hiZOWEE05ojj322ObGG29s65NGY+Lf8ft85PGiiy5qTj311CbqH3V85jOf2ey7774rwS9/QHw3PMY+xYOYr7jiiiaePxheMfIWP2kb3RGvbr122GGHlf3MLfJHz+R17o4yPfrooysjfJPaK/rJtdde20RZ1113XVvPGB0Ms9j/fJQ0Xpv6Qdct7p276qqrVvpIrPKZnGMf3/rWt7b98HWve13ztre9rf3/9FzGAbq9TcxJYF7hcU7VUQwBAgSqENi2bVsV+znETgqPQyiOZxvC4wBtvdZBNy08RvERDo488sg2IOUrMcazMO+99952BLN7/1n+uggefaN8s0xbzbdzyy23tAEmgs2DDz7Y/n9MvY2fU045pTn55JPbf0fYiwfCx37lZeT70Z3CGu/r1uPggw/eLjxeffXVzf33378yhTVCZN9+5FNTUwA+9NBDmwhbaXpmCpphGD4pxKYHs3efzxf1OvHEE7drh3DJH7+Qt2n+7yjvXe96V7u/u+++e9uu6bmjXef4W4TTZPDAAw+0/x31TWWFQ1qMZp999mmtIjCmkBim0T55u0W5paYlD3Co2MQGBOZxUp9HGRuourcQGExAHx+MchQbGlt/GVt9R9GJC1ZSeBwAd1p4TKNDeVFp5DAPSnvssceqxUVuvfXWlfDYXSQkH728+OKLJ4bHNAKYl51GzlIgidAU00bze9jy+zbz0aruYh75NMlrrrlmZT8mjYbmU1VnCY+x3ylAhVWMJKaRxVSnfJsxXTgFxRR48/3KHbpTPPNVQ9PoYISz7mhduhf1nHPOWRXU8u1F+O4+7y/dx5kHxGjz3Cpv1+uvv7657bbb2oAY+5D26fLLL29NUgjOyxUeBzigF2wT8zipz6OMBWO1OyMT0MdH1uCbrO7Y+svY6rvJ7jH6twuPA3SBaeExjbqlovKA0A0SeRDohsc0fTFtJwW8SeFo2shjd3QstpsHmXyqZr6wR76YzSzhsbsYSJSTj7pNWzAn9ilGOmNKZ/x076PMw2P8PQLkMcccszJ6mYfrfBpovDYZxr/zeuXhMf6WT7uN/47prlFGHji74XFSe+WjuhEK1wqP3fAfFx0iTJ577rntCHCEfuFxgIN4gTcxj5P6PMpYYGK7NgIBfXwEjTxgFcfWX8ZW3wG7yig3JTwO0OybCY/rGXlM0ze7I2EbvedxrZHHPKB1V0XNA1M+Etk38tidKrrekccYmYsg98lPfrJtqZg6m09Zjd/l24xwFfsXofCxxx5bWbQoRiOPPvroVVNJuyOPk8JjTB/ORwBnHXmc1F7dUc21wmOatpx30+5CQ8LjAAfxAm9iHif1eZSxwMR2bQQC+vgIGnnAKo6tv4ytvgN2lVFuSngcoNk3Ex6j+I3c85g/JH2taat56Imyuo8mmHTPYz7qmVYtze95TPcGTrvnsRse08jfekYe0/2eu+2228oUzklhKk2FjcV50oI3KZx1w2N+j+JaI495eEyPXNh///23W013rXse8/bK7+Nca+Qxv+cxAnNqqzRt1cjjAAdvBZuYx0l9HmVUQG0Xl1hAH1/ixi1QtbH1l7HVt0CXGdUmhccBmnsz4THd59hdbTWNuEWw7FtttW+V0+50zmnTViOQTFpttfv77rTVtCrppFVf8+crxr7mK8cGeb6ATXfaagrU8f8RALv3BXabrDsSlwe17nvzqbhvetObmjvvvHPVaq+xYE+yTyOH+TP6or7HHXdcc9NNN7VBNv/bGWec0W4vLdiTT9fN22vWkce8D0Sdk/WOO+64stBQd9pqGk3ue+blAF3dJrZAYB4n9XmUsQV0iiSwIqCP6wzrERhbfxlbfdfTF7x2ewHhcYBeMaaDbr3PYByAd7vR0iG2WWIb3UWNSpRhm+MTmMfnyzzKGF/LqfEiCejji9Qai78vY+svY6vv4vfAxd5D4XGA9hnTQTfv8JhG79I02QGaa7BNdEdn89HFwQqxodELzOPzJZXRfQ5qws+fedq3AFa8Ls2QyBssLqikx//k9yrnz5BNr4/jJx7nEysqp2fC5ttKzzn1rNLRHxIbApjHcbShHfOmhRQYW38ZW30XstNVtFPC4wCN5aAbANEmCBDoFZjH50s3PKbnk8YOpbAYU9djmnT3cT3xmu5zaON36V7p+Pe+++67apXkvuffdivfV44uQmCjAvM4jja6b963eAJj6y9jq+/i9bi69kh4HKC9HHQDINoEAQILGR5jp/L7p+++++5Vj6hJO91d9TnCX4wixj3N8f50P3G8XnjU2ect4Dw9b/G6yxtbfxlbfevunVu/98LjAG3goBsA0SYIEFjY8JhPV++uAhw73TfyGIExfmIhr/Ss1hi5FB519K0QcJ7eCvV6yxxbfxlbfevtmYux58LjAO3goBsA0SYIEKgmPKbVofMdTisyx+/yx/vEvY5x7+PNN9/c3tOYwuNVV121qr75fZXxB9NWHRBDCjhPD6m5/NsaW38ZW32XvweXraHwOICvg24ARJsgQGBhw2O+knB35LFvleG+RXW6j/WJyqYw2Vdx4dEBMaSA8/SQmsu/rbH1l7HVd/l7cNkaCo8D+DroBkC0CQIEFjY8TrvnMaalPvTQQ+2zT2M11L57GvN7It3zqLPPW8B5et7idZc3tv4ytvrW3Tu3fu+FxwHawEE3AKJNECCwkOFxvautxgjjEUcc0eQrtkbF8gAafzPyqMPPU8B5ep7a9Zc1tv4ytvrW30O3tgbC4wD+DroBEG2CAIGFCY933HHHqn3pPufxtNNOay6//PImf3ZjhMMbbrihefWrX928973vbeI9e+yxx8p28hAa9z8Kjzr8PAWcp+epXX9ZY+svY6tv/T10a2sgPA7g76AbANEmCBDY8vCoCQgsq4Dz9LK2bJl6ja2/jK2+ZXrNeLYqPA7Q1g66ARBtggAB4VEfIFBIwHm6EOySbnZs/WVs9U3d9utf/3rzspe9rPn2t7/dvP3tb29OOeWUNXv0N7/5zeav//qvm89//vPNz372s+Y5z3lO89rXvrY56qijmjAcy4/wOEBLj/WgG4DOJggQmCIwj8+XeZShoQlspYA+vpX69ZU9tv4ytvqmHhm3W8Rjpp7whCc0z3rWs5prr7222XnnnXs7bKwsfvrppzf/+7//27zwhS9sHv/4x7ch8oc//GHzpje9qTnjjDNGEyCFxwE+08Z60A1AZxMECAiP+gCB4gLO08WJl6qAsfWXsdU3OuvDDz/cxDOLIwzG/fmf+cxnmmuuuaZ5wQtesF1fjoD4yle+svn+97/fvOc972kOOuig9jXf+973muOOO675z//8z/a9MRI5hh/hcYBWHuNBNwCbTRAgMIPAPD5f5lHGDFX1EgLFBPTxYrRLueGx9Zex1Tc67ac+9anm+OOPb4499tjm+c9/fvvvCIgxGtmdgppe2/f36667rn081fnnn9+ceeaZS3k8dCslPA7QzGM86AZgswkCBGYQmMfnyzzKmKGqXkKgmIA+Xox2KTc8tv4ytvpu27atDXof/OAHm6uvvrqJR0y99KUvbX7yk580H/7wh5vf+I3fWNWvY1rqBRdc0Hz0ox9t72/Mf+688872vsl99923XWn8iU984lIeE3mlhMcBmnhsB90AZDZBgMCMAvP4fJlHGTNW18sIFBHQx4uwLu1Gx9Zfxlbf7373u82f//mfN0960pOaj3zkI80uu+zSXHjhhe3oYd/COTGyGI+Yinsi80dUxQFw3333tc82jnslYxTyKU95ytIeF6liwuMATTy2g24AMpsgQGBGgXl8vsyjjBmr62UEigjo40VYl3ajY+svY6vvVVdd1U41jdHE8847r+3H//iP/9gcc8wxzW/91m+tWjgnRiPjvsZYabUvPMb9jjGd9cEHH9zu+cbLeoAIjwO07NgOugHIbIIAgRkFuvdezPg2LyNAgACBTQjE1Max/Izpe+xjjz3W3t/45S9/uV3k5vd+7/faZk6//4d/+Id2KuuLX/zi9vc//vGP2/si77rrrt7wmP7+wAMPCI9jOWCGqOeYDrohvGyDAIHZBebx+TKPMmavsVcSGF5AHx/edJm3OLb+Mqb6phHG5z73uc0HPvCBZqeddlrpyldccUVz6qmnNq9+9aubd7zjHe3jOIw8bn+kG3kc4NNvTAfdAFw2QYDAOgTm8fkyjzLWUWUvJTC4gD4+OOlSb3Bs/WVM9U2L36zVgffee+/mQx/6UBMBM37c87haS3gc4OMvHXTpptk77rhj1VZPOumk5sorr1y5qbb798MOO2y7qx/xMNK4ATf9xENM+5YAjtddcskl7VB5/MR7utvfa6+9Vg21T9p2Gnq/8cYbt1Pp28fui2K7Z511Vu+w/qz1iSWS4yftc1wVOvvss9vfhWH6uf3229sbm2NqQTyfZ9LPrK+L/Yu57N2rUAN0D5sgsCmBeZzU51HGphC8mcAmBfTxTQKO7O1j6y9jqW9MLY2FcuJ5jX/4h3/Y/NIv/dJ2Pfsb3/hG88UvfnHV/ZDxPfsNb3hD+1378MMPX/Ueq62O7MNhqOp2w2OEndS5UiCLB5HGUsAR7vr+fuCBB66EwwhQN9xww8rc6bSNWA0qD1Cx/33hMd/+tICXtp2XH++J0HXaaac1l19++XYrS/W5xXZOOeWU9k+xXHEedLuh49krTAAAIABJREFUclKZ8d48PMbKVlHfuOIjPA7VW22nNoF5nNTnUUZt7vZ3uQT08eVqz9K1GVt/GUt90zMZjz766JVpqd2+lJ7puM8++7SP7dhtt92aT3/60+1iOn3PeYz7JuP3kwZ5SvfVrdi+kccB1NcKj7H5CD977rlnE521Gx5TYLr33ntXRifjRt5YASpfDjhGNft+v57wuFZQ7I7idcPjtBG8+Ps73/nOJkJyBMA0IrieMlMYjv/fdddd25Wtwm6W8BjlR9n33HNPG9K7I7Hpd/fff/92r4uRSyOPAxwINlFEYB4n9XmUUQTHRgnMKKCPzwjlZa3A2PrLGOr705/+tHnta1/bXH/99e337Ze//OW9vf3hhx9uvyd+4QtfWHndv//7v7evjxVVY6XWtMjO9773vXYl1lhxNULkc57znFEcQcLjAM28VnhMU1ljNHCWkcdJIWZSCFtPeFzPaOJ6XpsCcPx/jDhG2DvkkEPa0df1bqevOaaFx3hPhPIjjzxypfyHHnqonYJ69913r0xvTa9LI7Ox3fS6W265xbTVAY4FmxheYB4n9XmUMbyMLRKYXUAfn93KK4XHZewDX//615uXvexlzVOf+tSVEcVJ9YxBkLgN66UvfWnz3ve+t3niE5/YfPSjH21OP/309i0vfOEL28V0Pv/5zzc//OEPm7iP8owzzmgvOozhR3gcoJWn3fOYhrKn3RMZu7LWCFgawexOCZ12z2O6XzEPUmvdJxj7sZ7Ql6asnnzyye1oadQhTTmdNmI5C3/UO670dH/y0cR85DTf93hP+lvcC5qsov75vsXf3PM4S2t4zbwF5vGldx5lzNtNeQRyAX1cf1iPwNj6yxjqmwLh61//+pVbpCb1iRQ04+/5wjmf+9znmssuu6y59dZbm5/97GftSGOMZh511FGjCY5hIjyu59NkwmunTVtNb8tHISeNyg0RHifd87ieQLje16Ypo6muebBbz72TfcTTRh67oTCf4tsNj/kiRPG3tDBPTEUQHrfXn3TBI19AKZ8ynG8h9YGLL764/XX3ft2+dp31cOyWOeleg1nKmHSBI040aTr5pH6ZLmqkuqaLMvn+pQWz0kWZ/FjJ9zud2OJ1+XvmcVKfdgFsPe2dDPL6RJ26Cw10F+jqGqZFtnKL2E7qk2mbcfzHcT3tdfmU9b5+mv5+4oknrrpnO79o13chKy930vGSPmd233333kXN+hZhmPVY8LrZBOZxHM22J15Vg8DY+svY6ltDH1zkfRQeB2idjYbHKLq7OM6kexvz38e86riHMkYg1zNtddLU19h2Cnj5l99ZQ1/fF/T0heuEE05oH67aXZCnr8xJTTEtPMaXvllHHicFRPc89ut3L3jEq7r9aNqFhryPpv7Vt91ZD8XuSPek8ieFj7ycFPJ23nnnVQ/3TcGnG0jSe/PR9fhd3kfzuh188MEr/T+OhVhUKo3Qd0fI457heMZU/OTHzDxO6mt9hq23vSd9ruX3eyejNNU83tNdWCv++y1veUvz5Cc/edWqyt3fR3ic5XXxObHWZ9qkvtANj/mFkO5iZtP6dd/fU7lxIaG7it+sx4TXTReYx3E0fS+8ohaBsfWXsdW3ln64qPspPA7QMpsJj32Bbtpqq/mISPz7tttua+/ve+SRR3oX5MmrOGnl0+5KrtMCQdrmpC9L+X7F/YT5IzzWWj22rzmmhcd4z0buecydTVudPTymcJBG5ab1lb4+kgfKGJlMF0M2cjj2HUPp4kRsr2+V4jysxH0KsT9pkad0L+x+++3X/OAHP9huxLRvH/P6dC9m5MdC/jDiaasOJ995nNSnfYblnzkbae/knS7evPvd7+4d1c3LSRd0dthhh+YlL3nJSrCK9nna057WfOlLX2rbLB270143S3iMi1CxnbzPrBUeo165RxpZnDT7Y5bPy7yPbOR48J5+gXkcR+yXR2Bs/WVs9V2enro1NREeB3Cf9sVrWtDqez7iWs9FzKd75c9wnDRlKsrPp0V1t903ujLraqt9o0rpC1VMz0tX02cpc1JTTAuP6f7F7mqr8fvuFLd86lpuZ+Rx9vC4kZGobhv23b+70UOx7wt52n4EsPjpTpnNy9rotNV8G92LJfkI96RjZFKQ6PrO46Q+5MjjpPomr/zxRd2Rtvy9KRTmIT5dFIhjPdo0D4/TXjdreLzwwgub8847b2XF62nhcdrjmPJ+MqnNh7g3fKPHz1jeN4/jaCyWY6jn2PrL2Oo7hj5cso7C4wC6DroBEG1iIQVmWeRp0j2P+UWJPJzHCHnfY2c2CtANpumxMTEFNEaASofH7oWW7kjjpDDVd1EkXWTJ7/+bx+fLtHse17pvM7Vbes20CzFrhce+RazCKT3+JwJlLMYVz9vKF8KKsD7tdZPueUz7nZcdS7mnGR3Rh9LIeF+b9YXH2M/8J90zOml2iPC40aN/9vfN4ziafW+8ctEFxtZfxlbfRe9/i75/wuMALeSgGwDRJhZSYJZFnqZNY4yK5ffsxipl6Yv5Zqfo5Y9biW1174csuWBO1KvvfrVueOoLj9397jZ+/p6nP/3pzbZt24r2j0kjj31tO629NzPy2BceL7/88uacc85p7xVN93sfdNBB24XHaa+bdeQxRjN33HHH9r7TGOGMsLpWeJz2OKZZRh6nmRVt/JFs3Hl6JA09UDXH1l/GVt+BusloNyM8DtD0DroBEG1iIQX6ptl178mdFiaiYml0JqYW3nnnne2X8s0sDjLpvtlZRkG70Budtto33TwFynwBp3wkMv4eoWTSfZhp33LTWGxqq8Jj7M9623utqZlpUaD13PMY93PH6+P+0+g7F1xwQcvUHXmc9rr1hMeY8p4C3W677bay4NekKfRpIR73PC7kx1i7U87Ti9s2i7hnY+svY6vvIva5mvZJeBygtRx0AyDaxEIKDLHaaqpYWsG0+0iGjVR8lhHF2O4sr9tIeFwrME9abTVWR560P93RyjxwxmqjWxkeN3KPa98q0vmiVrOutpruHY1Ft+L9fc+szRe7Wut16w2Pqf/E41jSI1W67We11Y0cvVvzHufprXGvtdSx9Zex1bfWfrko+y08DtASDroBEG1iIQUmjSLlo26x493nfMbv8gWJ4r/TqOAhhxyyagGb9S6eM+k+zL5nPXYfodF3r+Ws4bF7T1ysIJz/5KE4HwFN99RN2+/8uYhbfc9jd7XQjbR39zmP3faZ5TmPKTymewXToz36prfmK073vW7SPY+pn+ajmd1HyqTtbfQ5j7HtWLQs2jVCcPeeSM95LP/x5zxd3niZShhbfxlbfZepr25FXYTHAdQddAMg2gQBAr0C8/h8mUcZmpfAVgro41upX1/ZY+svY6tvfT1ysfZYeBygPSYtNpE2nT+7bIDiVjaRX33vPltuUjlpelwsLhH36cSIUVwNX+/ql2lVyO5jPrqPxkhX8Ies96JtK2/fGJmIkbV77rmn9zl2i7bv9mfxBeZxUp9HGYsvbQ+XWUAfX+bWHb5uY+svY6vv8D1mXFsUHgdo760Kj/muz7rUe98y+vlKmAcccMBMIrGdt7zlLU3cj5Uerh5vnPT7mTZa6YsmhceoTtzn5ofAZgTmcVKfRxmbMfBeApsV0Mc3Kziu94+tv4ytvuPqzcPXVngcwHS94TGN2kXRaQGIeMxA/vt0z1NaMj5WqbzuuuvaEa1071AKjBdddFFz6qmntvfRpPfFv+PemvST7qnpjjzGa+JvN954Y3uP2qte9armK1/5ShP3D8U+5c/Myx+rkLazww47NC95yUtWVs6MkbenPe1pzZe+9KWVUJnf+5TuL9pnn31WVp2MBSnip/tcwL79j9el7cW2IuzGPqSHwOf3JHWdwvCyyy5r6xl/u+SSS1qzSc+wy+87i/qmMj772c+u3M/34IMPrjjHdvbdd9/m2c9+dhO/j5/NrCg6QNe0iSUQmMdJfR5lLEFTqELFAvp4xY23Bbs+tv4ytvpuQZdaqiKFxwGacz3hMX8u3MEHH7wSoOI5ZvnU0QhI8XPCCSe0r3nggQfakJevGBh/T8vV59NWu6sK5is3xmqEsQjFpGmrsdR83350R9BSeIxAFkvoR7CKEcw0FTb+O0YkI5xFSIt9jymsaQGT+F3UK34iqMZ+xQIksW/xk5a+j3CY7//dd9+98re0LP7+++/flt99XUzJjZC46667ttNzTzzxxHYkMPYhnt3WLau7zH7+LL60imPUI2+3VO699967ahGYAbqVTRBoBeZxUp9HGZqTwFYK6ONbqV9f2WPrL2Orb309crH2WHgcoD264bG7kl4UkUa3Jj1A/O1vf3vzxje+sX2GWT51tLtMfmwrrU6ZPyh7rXse8zKnhccoO923FyHplFNOaR/O3Z3OmrYZr43QloJihLJjjjlmJdR273lMUzxTeIxn2EWgW2vqbL7/3efDTdpe16kbRlPYy8uN0cI86HZXdMz/lk9VLXVP6wBd0yaWQGAeJ/V5lLEETaEKFQvo4xU33hbs+tj6y9jquwVdaqmKFB4HaM71jDzmo2NpWmg+epgeeZCms8buxQhd/lD1WcJjd0n5tL1ZwmOEtRQC00O98ymrsU/59NcYNY2Aec011zR77rlnk4faNO02psWmnwjSKTymenXD46T9j0cIxE+aQtoNj3k5KbR3w2we9rrhMZ8qG+9P02wjWKbHBoSF8DjAgWMTMwnM46Q+jzJmqqwXESgkoI8Xgl3SzY6tv4ytvkvabedWLeFxAOr1hMdJI49pWmfanUkjavlI5KSRx+5U0fWOPKbppxGc4v7FvkVfuqOBMXX1zjvvbEdO4ycF4uuvv7657bbbVu6h7NarLzx2RwDXM/KYh+xk2V1MaK3wmAfEvGv0PcQ9jV4aeRzgILKJiQLzOKnPowxNTGArBfTxrdSvr+yx9Zex1be+HrlYeyw8DtAe6wmPk+557Bsdi11L9zzGv+PewPyevzyk5dNW8/CYRv7S+2cZeYzX5vcF9q3A2g2kMWKXRjdjH/vCY3rQd9yjuNbIYx4eu/s/6z2P+UPF85Ad02gnhcfuPY/xuhtuuKG9XzNMjTwOcLDYxLoF4vPFDwECBAjMV2Dbtm3zLXALSxMetxC/wqKFxwEabT3hMYqbtNpqvippd9rqLrvs0qRVSdPKqfmIWmw3TbmMkHnuueeurKB6xhlntGWm+xK7C+akBWDuuuuuNiBFWOx7pEdOlf89D2oxStm3X2kl2OOOO6656aabVi3YEyuS5tNH00qsaQXYfP9T+IvFdWI11Oc///nNY4891rvaarrPdNaRx6h3Cvexqm2astrnkQfQSc+8HKBr2QQBC+boAwQGEPDleADEEW1ibP1lbPUdUVcuUlXhcQDWkgddmqbaNx1zgF2fuIl0X+UiP6ewbzGhkia2TWArBEp+vqT6zKOMrbBTJgF9XB/YiMDYPhPHVt+N9Anv+X8CwuMAvaHkQTfv8JjKC5b0rMcBiAbbRD5qGxvNn9E4WCE2RGCBBEp+vvhivUANbVeKCszjOCpaARufq8DY+svY6jvXzrSEhQmPAzSqg24ARJsgQKBXYB6fL/MoQ/MS2EoBfXwr9esre2z9ZWz1ra9HLtYeC48DtIeDbgBEmyBAQHjUBwgUEnCeLgS7pJsdW38ZW32XtNvOrVrC4wDUDroBEG2CAAHhUR8gUEjAeboQ7JJudmz9ZWz1XdJuO7dqCY8DUDvoBkC0CQIEhEd9gEAhAefpQrBLutmx9Zex1XdJu+3cqiU8DkDtoBsA0SYIENjy8BiPzIlH/sSjdfKftDBV+vvZZ5/dxCN20k/+6Jr8cTfp7/FYnXjEUDxqJ/5+2mmntY/r6T5Dtm+V5/wRRrG99KiifP9iIa14fE961FDfPqTXX3rppU332a/xt7RYWDwiKH7yfY7/jv1417vetVJG/C5/xFDf83B16cURcJ5enLaoYU/G1l/GVt8a+uAi76PwOEDrOOgGQLQJAgQWJjzm4TBf8TkCVYTLaeGxGw4jFMbPlVdeua7wGIHthhtuWAmefeE19u+UU05pt7/vvvs23ccLxTZuu+22VatHd5/9mrZ75JFHrry/G0hTiM1XeBYe6zlonafraatF2NOx9Zex1XcR+ljN+yA8DtB6DroBEG2CAIGFDI+xU2lE8Oijj95QeIwgFqOC8fifu+++e6aRx0mjnPm2dtpppzaMvvOd72ziWbgR8K6++up2hDP9zBIe85HTvBHy36ftPPDAAyvhWXis56B1nq6nrRZhT8fWX8ZW30XoYzXvg/A4QOs56AZAtAkCBBYyPOYhbjMjj3vuuWc7qjfrtNUIiZdccsnKqOOk7hGhLn5i2xFyDznkkO2m1K418rjjjjs2xx57bBs+86m4sc18H66//vrm3nvvbbefgvAjjzzSHH/88c0FF1yw3RRc3XmxBJynF6s9Fn1vxtZfxlbfRe9/i75/wuMALeSgGwDRJggQWJjw2L3nMe4TjHC20XseDzvssJVpo+sJjymkxQhj30+asnryySe34S3C3s0339xOj5115HGt8JhPb03hMQJthM0DDzywiZFY4bGOA9d5uo52WpS9HFt/GVt9F6Wf1bofwuMALeegGwDRJggQWJjw2L2nMe3YrOGxe89jPoJ3//33zzRtdZaRx2mL88R+T5u2ut7wmO7bPP/885sLL7ywOe+884w8VnDsOk9X0EgLtItj6y9jq+8CdbUqd0V4HKDZHHQDINoEAQILHx7zxXPyKZ7TFsTJ7w2MSs6y2uqkoJrucbziiivaew/jJx9p7K7YOi08xv2Rs97zGNNWU1lRzkMPPdQ8+uijwmMFx67zdAWNtEC7OLb+Mrb6LlBXq3JXhMcBms1BNwCiTRAgsPDhMXYwhaZY/CYtWBP3C8bU1giUfdNSNzLymEYN+1ZbjVVR11q8J7/HcZbwOOtqq3l4TO95+OGHVz2+QzdeTAHn6cVsl0Xdq7H1l7HVd1H7XS37JTwO0FIOugEQbYIAgSrCYwqQV1111cr+5s9e7JtKutdee635DMb092uuuaZJC+ukjXef85juv5w0rTWVn8LsLOExyprlOY95eIz3dB/noQsvroDz9OK2zSLu2dj6y9jqu4h9rqZ9Eh4HaC0H3QCINkGAwJaHR01AYFkFnKeXtWXL1Gts/WVs9S3Ta8azVeFxgLZ20A2AaBMECAiP+gCBQgLO04Vgl3SzY+svY6vvknbbuVVLeByA2kE3AKJNECAgPOoDBAoJOE8Xgl3SzY6tv4ytvkvabedWLeFxAGoH3QCINkGAgPCoDxAoJOA8XQh2STc7tv4ytvouabedW7WExwGoHXQDINoEAQLCoz5AoJCA83Qh2CXd7Nj6y9jqu6Tddm7VEh4HoHbQDYBoEwQICI/6AIFCAs7ThWCXdLNj6y9jq++Sdtu5VUt4HIDaQTcAok0QICA86gMECgk4TxeCXdLNjq2/jK2+S9pt51Yt4XEAagfdAIg2QYCA8KgPECgk4DxdCHZJNzu2/jK2+i5pt51btVbC49xKVBABAgQIECBAgAABAgQIVCnwuKZptm3btq3KnbfTBAgQIECAAAECBAgQIFBewLTV8sZKIECAAAECBAgQIECAQPUCwmP1TagCBAgQIECAAAECBAgQKC8gPJY3VgIBAgQIECBAgAABAgSqFxAeq29CFSBAgAABAgQIECBAgEB5AeGxvLESCBAgQIAAAQIECBAgUL2A8Fh9E6oAAQIECBAgQIAAAQIEygsIj+WNlUCAAAECBAgQIECAAIHqBYTH6ptQBQgQIECAAAECBAgQIFBeQHgsb6wEAgQIECBAgAABAgQIVC8gPFbfhCpAgAABAgQIECBAgACB8gLCY3ljJRAgQIAAAQIECBAgQKB6AeGx+iZUAQIECBAgQIAAAQIECJQXEB7LGyuBAAECBAgQIECAAAEC1QsIj9U3oQoQIECAAAECBAgQIECgvIDwWN5YCQQIECBAgAABAgQIEKheQHisvglVgAABAgQIECBAgAABAuUFhMfyxkogQIAAAQIECBAgQIBA9QLCY/VNqAIECBAgQIAAAQIECBAoLyA8ljdWAgECBAgQIECAAAECBKoXEB6rb0IVIECAAAECBAgQIECAQHkB4bG8sRIIECBAgAABAgQIECBQvYDwWH0TqgABAgQIECBAgAABAgTKCwiP5Y2VQIAAAQIECBAgQIAAgeoFhMfqm1AFCBAgQIAAAQIECBAgUF5AeCxvrAQCBAgQIECAAAECBAhULyA8Vt+EKkCAAAECBAgQIECAAIHyAsJjeWMlECBAgAABAgQIECBAoHoB4bH6JlQBAgQIECBAgAABAgQIlBcQHssbK4EAAQIECBAgQIAAAQLVCwiP1TehChAgQIAAAQIECBAgQKC8gPBY3lgJBAgQIECAAAECBAgQqF5AeKy+CVWAAAECBAgQIECAAAEC5QWEx/LGSiBAgAABAgQIECBAgED1AsJj9U2oAgQIECBAgAABAgQIECgvIDyWN1YCAQIECBAgQIAAAQIEqhcQHqtvQhUgQIAAAQIECBAgQIBAeQHhsbyxEggQIECAAAECBAgQIFC9gPBYfROqAAECBAgQIECAAAECBMoLCI/ljZVAgAABAgQIECBAgACB6gWEx+qbUAUIECBAgAABAgQIECBQXkB4LG+sBAIECBAgQIAAAQIECFQvIDxW34QqQIAAAQIECBAgQIAAgfICwmN5YyUQIECAAAECBAgQIECgegHhsfomVAECBAgQIECAAAECBAiUFxAeyxsrgQABAgQIECBAgAABAtULCI/VN6EKECBAgAABAgQIECBAoLyA8FjeWAkECBAgQIAAAQIECBCoXkB4rL4JVYAAAQIECBAgQIAAAQLlBYTH8sZKIECAAAECBAgQIECAQPUCwmP1TagCBAgQIECAAAECBAgQKC8gPJY3VgIBAgQIECBAgAABAgSqFxAeq29CFSBAgAABAgQIECBAgEB5AeGxvLESCBAgQIAAAQIECBAgUL2A8Fh9E6oAAQIECBAgQIAAAQIEygsIj+WNlUCAAAECBAgQIECAAIHqBYTH6ptQBQgQIECAAAECBAgQIFBeQHgsb6wEAgQIECBAgAABAgQIVC8gPFbfhCpAgAABAgQIECBAgACB8gLCY3ljJRAgQIAAAQIECBAgQKB6AeGx+iZUAQIECBAgQIAAAQIECJQXEB7LGyuBAAECBAgQIECAAAEC1QsIj9U3oQoQIECAAAECBAgQIECgvIDwWN5YCQQIECBAgAABAgQIEKheQHisvglVgAABAgQIECBAgAABAuUFhMfyxkogQIAAAQIECBAgQIBA9QLCY/VNqAIECBAgQIAAAQIECBAoLyA8ljdWAgECBAgQIECAAAECBKoXEB6rb0IVIECAAAECBAgQIECAQHkB4bG8sRIIECBAgAABAgQIECBQvYDwWH0TqgABAgQIECBAgAABAgTKCwiP5Y2VQIAAAQIECBAgQIAAgeoFhMfqm1AFCBAgQIAAAQIECBAgUF5AeCxvrAQCBAgQIECAAAECBAhULyA8Vt+EKkCAAAECBAgQIECAAIHyAsJjeWMlECBAgAABAgQIECBAoHoB4bH6JlQBAgQIECBAgAABAgQIlBcQHssbK4EAAQIECBAgQIAAAQLVCwiP1TehChAgQIAAAQIECBAgQKC8gPBY3lgJBAgQIECAAAECBAgQqF5AeKy+CVWAAAECBAgQIECAAAEC5QWEx/LGSiBAgAABAgQIECBAgED1AsJj9U2oAgQIECBAgAABAgQIECgvIDyWN1YCAQIECBAgQIAAAQIEqhcQHqtvQhUgQIAAAQIECBAgQIBAeQHhsbyxEggQIECAAAECBAgQIFC9gPBYfROqAAECBAgQIECAAAECBMoLCI/ljZVAgAABAgQIECBAgACB6gWEx+qbUAUIECBAgAABAgQIECBQXkB4LG+sBAIECBAgQIAAAQIECFQvIDxW34QqQIAAAQIECBAgQIAAgfICwmN5YyUQIECAAAECBAgQIECgegHhsfomVAECBAgQIECAAAECBAiUFxAeyxsrgQABAgQIECBAgAABAtULCI/VN6EKECBAgAABAgQIECBAoLyA8FjeWAkECBAgQIAAAQIECBCoXkB4rL4JVYAAAQIECBAgQIAAAQLlBYTH8sZKIECAAAECBAgQIECAQPUCwmP1TagCBAgQIECAAAECBAgQKC8gPJY3VgIBAgQIECBAgAABAgSqFxAeq29CFSBAgAABAgQIECBAgEB5AeGxvLESCBAgQIAAAQIECBAgUL2A8Fh9E6oAAQIECBAgQIAAAQIEygsIj+WNlUCAAAECBAgQIECAAIHqBYTH6ptQBQgQIECAAAECBAgQIFBeQHgsb6wEAgQIECBAgAABAgQIVC8gPFbfhCpAgAABAgQIECBAgACB8gLCY3ljJRAgQIAAAQIECBAgQKB6AeGx+iZUAQIECBAgQIAAAQIECJQXEB7LGyuBAAECBAgQIECAAAEC1QsIj9U3oQoQIECAAAECBAgQIECgvIDwWN5YCQQIECBAgAABAgQIEKheQHisvglVgAABAgQIECBAgAABAuUFhMfyxkogQIAAAQIECBAgQIBA9QLCY/VNqAIECBAgQIAAAQIECBAoLyA8ljdWAgECBAgQIECAAAECBKoXEB6rb0IVIECAAAECBAgQIECAQHkB4bG8sRIIECBAgAABAgQIECBQvYDwWH0TqgABAgQIECBAgAABAgTKCwiP5Y2VQIAAAQIECBAgQIAAgeoFhMfqm1AFCBAgQIAAAQIECBAgUF5AeCxvrAQCBAgQIECAAAECBAhULyA8Vt+EKkCAAAECBAgQIECAAIHyAsJjeWMlECBAgAABAgQIECBAoHoB4bH6JlQBAgQIECBAgAABAgQIlBcQHssbK4EAAQLWR5nqAAAgAElEQVQECBAgQIAAAQLVCwiP1TehChAgQIAAAQIECBAgQKC8gPBY3lgJBAgQIECAAAECBAgQqF5AeKy+CVWAAAECBAgQIECAAAEC5QWEx/LGSiBAgAABAgQIECBAgED1AsJj9U2oAgQIECBAgAABAgQIECgvIDyWN1YCAQIECBAgQIAAAQIEqhcQHqtvQhUgQIAAAQIECBAgQIBAeQHhsbyxEggQIECAAAECBAgQIFC9gPBYfROqAAECBAgQIECAAAECBMoLCI/ljZVAgAABAgQIECBAgACB6gWEx+qbUAUIECBAgAABAgQIECBQXkB4LG+sBAIECBAgQIAAAQIECFQvIDxW34QqQIAAAQIECBAgQIAAgfICwmN5YyUQIECAAAECBAgQIECgegHhsfomVAECBAgQIECAAAECBAiUFxAeyxsrgQABAgQIECBAgAABAtULCI/VN6EKECBAgAABAgQIECBAoLyA8FjeWAkECBAgQIAAAQIECBCoXkB4rL4JVYAAAQIECBAgQIAAAQLlBYTH8sZKIECAAAECBAgQIECAQPUCwmP1TagCBAgQIECAAAECBAgQKC8gPJY3VgIBAgQIECBAgAABAgSqFxAeq29CFSBAgAABAgQIECBAgEB5AeGxvLESCBAgQIAAAQIECBAgUL2A8Fh9E6oAAQIECBAgQIAAAQIEygsIj+WNlUCAAAECBAgQIECAAIHqBYTH6ptQBQgQIECAAAECBAgQIFBeQHgsb6wEAgQIECBAgAABAgQIVC8gPFbfhCpAgAABAgQIECBAgACB8gLCY3ljJRAgQIAAAQIECBAgQKB6AeGx+iZUAQIECBAgQIAAAQIECJQXEB7LGyuBAAECBAgQIECAAAEC1QsIj9U3oQoQIECAAAECBAgQIECgvIDwWN5YCQQIECBAgAABAgQIEKheQHisvglVgAABAgQIECBAgAABAuUFhMfyxkogQIAAAQIECBAgQIBA9QLCY/VNqAIECBAgQIAAAQIECBAoLyA8ljdWAgECBAgQIECAAAECBKoXEB6rb0IVIECAAAECBAgQIECAQHkB4bG8sRIIECBAgAABAgQIECBQvYDwWH0TqgABAgQIECBAgAABAgTKCwiP5Y2VQIAAAQIECBAgQIAAgeoFhMfqm1AFCBAgQIAAAQIECBAgUF5AeCxvrAQCBAgQIECAAAECBAhULyA8Vt+EKkCAAAECBAgQIECAAIHyAsJjeWMlECBAgAABAgQIECBAoHoB4bH6JlQBAgQIECBAgAABAgQIlBcQHssbK4EAAQIECBAgQIAAAQLVCwiP1TehChAgQIAAAQIECBAgQKC8gPBY3lgJBAgQIECAAAECBAgQqF5AeKy+CVWAAAECBAgQIECAAAEC5QWEx/LGSiBAgAABAgQIECBAgED1AsJj9U2oAgQIECBAgAABAgQIECgvIDyWN1YCAQIECBAgQIAAAQIEqhcQHqtvQhUgQIAAAQIECBAgQIBAeQHhsbyxEggQIECAAAECBAgQIFC9gPBYfROqAAECBAgQIECAAAECBMoLCI/ljZVAgAABAgQIECBAgACB6gWEx+qbUAUIECBAgAABAgQIECBQXkB4LG+sBAIECBAgQIAAAQIECFQvIDxW34QqQIAAAQIECBAgQIAAgfICwmN5YyUQIECAAAECBAgQIECgegHhsfomVAECBAgQIECAAAECBAiUFxAeyxsrgQABAgQIECBAgAABAtULCI/VN6EKECBAgAABAgQIECBAoLyA8FjeWAkECBAgQIAAAQIECBCoXkB4rL4JVYAAAQIECBAgQIAAAQLlBYTH8sZKIECAAAECBAgQIECAQPUCwmP1TagCBAgQIECAAAECBAgQKC8gPJY3VgIBAgQIECBAgAABAgSqFxAeq29CFSBAgAABAgQIECBAgEB5AeGxvLESCBAgQIAAAQIECBAgUL2A8Fh9E6oAAQIECBAgQIAAAQIEygsIj+WNlUCAAAECBAgQIECAAIHqBYTH6ptQBQgQIECAAAECBAgQIFBeQHgsb6wEAgQIECBAgAABAgQIVC8gPFbfhCpAgAABAgQIECBAgACB8gLCY3ljJRAgQIAAAQIECBAgQKB6AeGx+iZUAQIECBAgQIAAAQIECJQXEB7LGyuBAAECBAgQIECAAAEC1QsIj9U3oQoQIECAAAECBAgQIECgvIDwWN5YCQQIECBAgAABAgQIEKheQHisvglVgAABAgQIECBAgAABAuUFhMfyxkogQIAAAQIECBAgQIBA9QLCY/VNqAIECBAgQIAAAQIECBAoLyA8ljdWAgECBAgQIECAAAECBKoXEB6rb0IVIECAAAECBAgQIECAQHkB4bG8sRIIECBAgAABAgQIECBQvYDwWH0TqgABAgQIECBAgAABAgTKCwiP5Y2VQIAAAQIECBAgQIAAgeoFhMfqm1AFCBAgQIAAAQIECBAgUF5AeCxvrAQCBAgQIECAAAECBAhULyA8Vt+EKkCAAAECBAgQIECAAIHyAsJjeWMlECBAgAABAgQIECBAoHoB4bH6JlQBAgQIECBAgAABAgQIlBcQHssbK4EAAQIECBAgQIAAAQLVCwiP1TehChAgQIAAAQIECBAgQKC8gPBY3lgJBAgQIECAAAECBAgQqF5AeKy+CVWAAAECBAgQIECAAAEC5QWEx/LGSiBAgAABAgQIECBAgED1AsJj9U2oAgQIECBAgAABAgQIECgvIDyWN1YCAQIECBAgQIAAAQIEqhcQHqtvQhUgQIAAAQIECBAgQIBAeQHhsbyxEggQIECAAAECBAgQIFC9gPBYfROqAAECBAgQIECAAAECBMoLCI/ljZVAgAABAgQIECBAgACB6gWEx+qbUAUIECBAgAABAgQIECBQXkB4LG+sBAIECBAgQIAAAQIECFQvIDxW34QqQIAAAQIECBAgQIAAgfICwmN5YyUQIECAAAECBAgQIECgegHhsfomVAECBAgQIECAAAECBAiUFxAeyxsrgQABAgQIECBAgAABAtULCI/VN6EKECBAgAABAgQIECBAoLyA8FjeWAkECBAgQIAAAQIECBCoXkB4rL4JVYAAAQIECBAgQIAAAQLlBYTH8sZKIECAAAECBAgQIECAQPUCwmP1TagCBAgQIECAAAECBAgQKC8gPJY3VgIBAgQIECBAgAABAgSqFxAeq29CFSBAgAABAgQIECBAgEB5AeGxvLESCBAgQIAAAQIECBAgUL2A8Fh9E6oAAQIECBAgQIAAAQIEygsIj+WNlUCAAAECBAgQIECAAIHqBYTH6ptQBQgQIECAAAECBAgQIFBeQHgsb6wEAgQIECBAgAABAgQIVC8gPFbfhCpAgAABAgQIECBAgACB8gLCY3ljJRAgQIAAAQIECBAgQKB6AeGx+iZUAQIECBAgQIAAAQIECJQXEB7LGyuBAAECBAgQIECAAAEC1QsIj9U3oQoQIECAAAECBAgQIECgvIDwWN5YCQQIECBAgAABAgQIEKheQHisvglVgAABAgQIECBAgAABAuUFhMfyxkogQIAAAQIECBAgQIBA9QLCY/VNqAIECBAgQIAAAQIECBAoLyA8ljdWAgECBAgQIECAAAECBKoXEB6rb0IVIECAAAECBAgQIECAQHkB4bG8sRIIECBAgAABAgQIECBQvYDwWH0TqgABAgQIECBAgAABAgTKCwiP5Y2VQIAAAQIECBAgQIAAgeoFhMfqm1AFCBAgQIAAAQIECBAgUF5AeCxvrAQCBAgQIECAAAECBAhULyA8Vt+EKkCAAAECBAgQIECAAIHyAsJjeWMlECBAgAABAgQIECBAoHoB4bH6JlQBAgQIECBAgAABAgQIlBcQHssbK4EAAQIECBAgQIAAAQLVCwiP1TehChAgQIAAAQIECBAgQKC8gPBY3lgJBAgQIECAAAECBAgQqF5AeKy+CVWAAAECBAgQIECAAAEC5QWEx/LGSiBAgAABAgQIECBAgED1AsJj9U2oAgQIECBAgAABAgQIECgvIDyWN1YCAQIECBAgQIAAAQIEqhcQHqtvQhUgQIAAAQIECBAgQIBAeQHhsbyxEggQIECAAAECBAgQIFC9gPBYfROqAAECBAgQIECAAAECBMoLCI/ljZVAgAABAgQIECBAgACB6gWEx+qbUAUIECBAgAABAgQIECBQXkB4LG+sBAIECBAgQIAAAQIECFQvIDxW34QqQIAAAQIECBAgQIAAgfICwmN5YyUQIECAAAECBAgQIECgegHhsfomVAECBAgQIECAAAECBAiUFxAeyxsrgQABAgQIECBAgAABAtULCI/VN6EKECBAgAABAgQIECBAoLyA8FjeWAkECBAgQIAAAQIECBCoXkB4rL4JVYAAAQIECBAgQIAAAQLlBYTH8sZKIECAAAECBAgQIECAQPUCwmP1TagCBAgQIECAAAECBAgQKC8gPJY3VgIBAgQIECBAgAABAgSqFxAeq29CFSBAgAABAgQIECBAgEB5AeGxvLESCBAgQIAAAQIECBAgUL2A8Fh9E6oAAQIECBAgQIAAAQIEygsIj+WNlUCAAAECBAgQIECAAIHqBYTH6ptQBQgQIECAAAECBAgQIFBeQHgsb6wEAgQIECBAgAABAgQIVC8gPFbfhCpAgAABAgQIECBAgACB8gLCY3ljJRAgQIAAAQIECBAgQKB6AeGx+iZUAQIECBAgQIAAAQIECJQXEB7LGyuBAAECBAgQIECAAAEC1QsIj9U3oQoQIECAAAECBAgQIECgvIDwWN5YCQQIECBAgAABAgQIEKheQHisvglVgAABAgQIECBAgAABAuUFhMfyxkogQIAAAQIECBAgQIBA9QLCY/VNqAIECBAgQIAAAQIECBAoLyA8ljdWAgECBAgQIECAAAECBKoXEB6rb0IVIECAAAECBAgQIECAQHkB4bG8sRIIECBAgAABAgQIECBQvYDwWH0TqgABAgQIECBAgAABAgTKCwiP5Y2VQIAAAQIECBAgQIAAgeoFhMfqm1AFCBAgQIAAAQIECBAgUF5AeCxvrAQCBAgQIECAAAECBAhULyA8Vt+EKkCAAAECBAgQIECAAIHyAsJjeWMlECBAgAABAgQIECBAoHoB4bH6JlQBAgQIECBAgAABAgQIlBcQHssbK4EAAQIECBAgQIAAAQLVCwiP1TehChAgQIAAAQIECBAgQKC8gPBY3lgJBAgQIECAAAECBAgQqF5AeKy+CVWAAAECBAgQIECAAAEC5QWEx/LGSiBAgAABAgQIECBAgED1AsJj9U2oAgQIECBAgAABAgQIECgvIDyWN1YCAQIECBAgQIAAAQIEqhcQHqtvQhUgQIAAAQIECBAgQIBAeQHhsbyxEggQIECAAAECBAgQIFC9gPBYfROqAAECBAgQIECAAAECBMoLCI/ljZVAgAABAgQIECBAgACB6gWEx+qbUAUIECBAgAABAgQIECBQXkB4LG+sBAIECBAgQIAAAQIECFQvIDxW34QqQIAAAQIECBAgQIAAgfICwmN5YyUQIECAAAECBAgQIECgegHhsfomVAECBAgQIECAAAECBAiUFxAeyxsrgQABAgQIECBAgAABAtULCI/VN6EKECBAgAABAgQIECBAoLyA8FjeWAkECBAgQIAAAQIECBCoXkB4rL4JVYAAAQIECBAgQIAAAQLlBYTH8sZKIECAAAECBAgQIECAQPUCwmP1TagCBAgQIECAAAECBAgQKC8gPJY3VgIBAgQIECBAgAABAgSqFxAeq29CFSBAgAABAgQIECBAgEB5AeGxvLESCBAgQIAAAQIECBAgUL2A8Fh9E6oAAQIECBAgQIAAAQIEygsIj+WNlUCAAAECBAgQIECAAIHqBYTH6ptQBQgQIECAAAECBAgQIFBeQHgsb6wEAgQIECBAgAABAgQIVC8gPFbfhCpAgAABAgQIECBAgACB8gLCY3ljJRAgQIAAAQIECBAgQKB6AeGx+iZUAQIECBAgQIAAAQIECJQXEB7LGyuBAAECBAgQIECAAAEC1QsIj9U3oQoQIECAAAECBAgQIECgvIDwWN5YCQQIECBAgAABAgQIEKheQHisvglVgAABAgQIECBAgAABAuUFhMfyxkogQIAAAQIECBAgQIBA9QLCY/VNqAIECBAgQIAAAQIECBAoLyA8ljdWAgECBAgQIECAAAECBKoXEB6rb0IVIECAAAECBAgQIECAQHkB4bG8sRIIECBAgAABAgQIECBQvYDwWH0TqgABAgQIECBAgAABAgTKCwiP5Y2VQIAAAQIECBAgQIAAgeoFhMfqm1AFCBAgQIAAAQIECBAgUF5AeCxvrAQCBAgQIECAAAECBAhULyA8Vt+EKkCAAAECBAgQIECAAIHyAsJjeWMlECBAgAABAgQIECBAoHoB4bH6JlQBAgQIECBAgAABAgQIlBcQHssbK4EAAQIECBAgQIAAAQLVCwiP1TehChAgQIAAAQIECBAgQKC8gPBY3lgJBAgQIECAAAECBAgQqF5AeKy+CVWAAAECBAgQIECAAAEC5QWEx/LGSiBAgAABAgQIECBAgED1AsJj9U2oAgQIECBAgAABAgQIECgvIDyWN1YCAQIECBAgQIAAAQIEqhcQHqtvQhUgQIAAAQIECBAgQIBAeQHhsbyxEggQIECAAAECBAgQIFC9gPBYfROqAAECBAgQIECAAAECBMoLCI/ljZVAgAABAgQIECBAgACB6gWEx+qbUAUIECBAgAABAgQIECBQXkB4LG+sBAIECBAgQIAAAQIECFQvIDxW34QqQIAAAQIECBAgQIAAgfICwmN5YyUQIECAAAECBAgQIECgegHhsfomVAECBAgQIECAAAECBAiUFxAeyxsrgQABAgQIECBAgAABAtULCI/VN6EKECBAgAABAgQIECBAoLyA8FjeWAkECBAgQIAAAQIECBCoXkB4rL4JVYAAAQIECBAgQIAAAQLlBYTH8sZKIECAAAECBAgQIECAQPUCwmP1TagCBAgQIECAAAECBAgQKC8gPJY3VgIBAgQIECBAgAABAgSqFxAeq29CFSBAgAABAgQIECBAgEB5AeGxvLESCBAgQIAAAQIECBAgUL2A8Fh9E6oAAQIECBAgQIAAAQIEygsIj+WNlUCAAAECBAgQIECAAIHqBYTH6ptQBQgQIECAAAECBAgQIFBeQHgsb6wEAgQIECBAgAABAgQIVC8gPFbfhCpAgAABAgQIECBAgACB8gLCY3ljJRAgQIAAAQIECBAgQKB6AeGx+iZUAQIECBAgQIAAAQIECJQXEB7LGyuBAAECBAgQIECAAAEC1QsIj9U3oQoQIECAAAECBAgQIECgvIDwWN5YCQQIECBAgAABAgQIEKheQHisvglVgAABAgQIECBAgAABAuUFhMfyxkogQIAAAQIECBAgQIBA9QLCY/VNqAIECBAgQIAAAQIECBAoLyA8ljdWAgECBAgQIECAAAECBKoXEB6rb0IVIECAAAECBAgQIECAQHkB4bG8sRIIECBAgAABAgQIECBQvYDwWH0TqgABAgQIECBAgAABAgTKCwiP5Y2VQIAAAQIECBAgQIAAgeoFhMfqm1AFCBAgQIAAAQIECBAgUF5AeCxvrAQCBAgQIECAAAECBAhULyA8Vt+EKkCAAAECBAgQIECAAIHyAsJjeWMlECBAgAABAgQIECBAoHoB4bH6JlQBAgQIECBAgAABAgQIlBcQHssbK4EAAQIECBAgQIAAAQLVCwiP1TehChAgQIAAAQIECBAgQKC8gPBY3lgJBAgQIECAAAECBAgQqF5AeKy+CVWAAAECBAgQIECAAAEC5QWEx/LGSiBAgAABAgQIECBAgED1AsJj9U2oAgQIECBAgAABAgQIECgvIDyWN1YCAQIECBAgQIAAAQIEqhcQHqtvQhUgQIAAAQIECBAgQIBAeQHhsbyxEggQIECAAAECBAgQIFC9gPBYfROqAAECBAgQIECAAAECBMoLCI/ljZVAgAABAgQIECBAgACB6gWEx+qbUAUIECBAgAABAgQIECBQXkB4LG+sBAIECBAgQIAAAQIECFQvIDxW34QqQIAAAQIECBAgQIAAgfICwmN5YyUQIECAAAECBAgQIECgegHhsfomVAECBAgQIECAAAECBAiUFxAeyxsrgQABAgQIECBAgAABAtULCI/VN6EKECBAgAABAgQIECBAoLyA8FjeWAkECBAgQIAAAQIECBCoXkB4rL4JVYAAAQIECBAgQIAAAQLlBYTH8sZKIECAAAECBAgQIECAQPUCwmP1TagCBAgQIECAAAECBAgQKC8gPJY3VgIBAgQIECBAgAABAgSqFxAeq29CFSBAgAABAgQIECBAgEB5AeGxvLESCBAgQIAAAQIECBAgUL2A8Fh9E6oAAQIECBAgQIAAAQIEygsIj+WNlUCAAAECBAgQIECAAIHqBYTH6ptQBQgQIECAAAECBAgQIFBeQHgsb6wEAgQIECBAgAABAgQIVC8gPFbfhCpAgAABAgQIECBAgACB8gLCY3ljJRAgQIAAAQIECBAgQKB6AeGx+iZUAQIECBAgQIAAAQIECJQXEB7LGyuBAAECBAgQIECAAAEC1QsIj9U3oQoQIECAAAECBAgQIECgvIDwWN5YCQQIECBAgAABAgQIEKheQHisvglVgAABAgQIECBAgAABAuUFhMfyxkogQIAAAQIECBAgQIBA9QLCY/VNqAIECBAgQIAAAQIECBAoLyA8ljdWAgECBAgQIECAAAECBKoXEB6rb0IVIECAAAECBAgQIECAQHkB4bG8sRIIECBAgAABAgQIECBQvYDwWH0TqgABAgQIECBAgAABAgTKCwiP5Y2VQIAAAQIECBAgQIAAgeoFhMfqm1AFCBAgQIAAAQIECBAgUF5AeCxvrAQCBAgQIECAAAECBAhULyA8Vt+EKkCAAAECBAgQIECAAIHyAsJjeWMlECBAgAABAgQIECBAoHoB4bH6JlQBAgQIECBAgAABAgQIlBcQHssbK4EAAQIECBAgQIAAAQLVCwiP1TehChAgQIAAAQIECBAgQKC8gPBY3lgJBAgQIECAAAECBAgQqF5AeKy+CVWAAAECBAgQIECAAAEC5QWEx/LGSiBAgAABAgQIECBAgED1AsJj9U2oAgQIECBAgAABAgQIECgvIDyWN1YCAQIECBAgQIAAAQIEqhcQHqtvQhUgQIAAAQIECBAgQIBAeQHhsbyxEggQIECAAAECBAgQIFC9gPBYfROqAAECBAgQIECAAAECBMoLCI/ljZVAgAABAgQIECBAgACB6gWEx+qbUAUIECBAgAABAgQIECBQXkB4LG+sBAIECBAgQIAAAQIECFQvIDxW34QqQIAAAQIECBAgQIAAgfICwmN5YyUQIECAAAECBAgQIECgegHhsfomVAECBAgQIECAAAECBAiUFxAeyxsrgQABAgQIECBAgAABAtULCI/VN6EKECBAgAABAgQIECBAoLyA8FjeWAkECBAgQIAAAQIECBCoXkB4rL4JVYAAAQIECBAgQIAAAQLlBYTH8sZKIECAAAECBAgQIECAQPUCwmP1TagCBAgQIECAAAECBAgQKC8gPJY3VgIBAgQIECBAgAABAgSqFxAeq29CFSBAgAABAgQIECBAgEB5AeGxvLESCBAgQIAAAQIECBAgUL2A8Fh9E6oAAQIECBAgQIAAAQIEygsIj+WNlUCAAAECBAgQIECAAIHqBYTH6ptQBQgQIECAAAECBAgQIFBeQHgsb6wEAgQIECBAgAABAgQIVC8gPFbfhCpAgAABAgQIECBAgACB8gLCY3ljJRAgQIAAAQIECBAgQKB6AeGx+iZUAQIECBAgQIAAAQIECJQXEB7LGyuBAAECBAgQIECAAAEC1QsIj9U3oQoQIECAAAECBAgQIECgvIDwWN5YCQQIECBAgAABAgQIEKheQHisvglVgAABAgQIECBAgAABAuUFhMfyxkogQIAAAQIECBAgQIBA9QLCY/VNqAIECBAgQIAAAQIECBAoLyA8ljdWAgECBAgQIECAAAECBKoXEB6rb0IVIECAAAECBAgQIECAQHkB4bG8sRIIECBAgAABAgQIECBQvYDwWH0TqgABAgQIECBAgAABAgTKCwiP5Y2VQIAAAQIECBAgQIAAgeoFhMfqm1AFCBAgQIAAAQIECBAgUF5AeCxvrAQCBAgQIECAAAECBAhULyA8Vt+EKkCAAAECBAgQIECAAIHyAsJjeWMlECBAgAABAgQIECBAoHoB4bH6JlQBAgQIECBAgAABAgQIlBcQHssbK4EAAQIECBAgQIAAAQLVCwiP1TehChAgQIAAAQIECBAgQKC8gPBY3lgJBAgQIECAAAECBAgQqF5AeKy+CVWAAAECBAgQIECAAAEC5QWEx/LGSiBAgAABAgQIECBAgED1AsJj9U2oAgQIECBAgAABAgQIECgvIDyWN1YCAQIECBAgQIAAAQIEqhcQHqtvQhUgQIAAAQIECBAgQIBAeQHhsbyxEggQIECAAAECBAgQIFC9gPBYfROqAAECBAgQIECAAAECBMoLCI/ljZVAgAABAgQIECBAgACB6gWEx+qbUAUIECBAgAABAgQIECBQXkB4LG+sBAIECBAgQIAAAQIECFQvIDxW34QqQIAAAQIECBAgQIAAgfICwmN5YyUQIECAAAECBAgQIECgegHhsfomVAECBAgQIECAAAECBAiUFxAeyxsrgQABAgQIECBAgAABAtULCI/VN6EKECBAgAABAgQIECBAoLyA8FjeWAkECBAgQIAAAQIECBCoXkB4rL4JVYAAAQIECBAgQIAAAQLlBYTH8sZKIECAAAECBAgQIECAQPUCwmP1TagCBAgQIECAAAECBAgQKC8gPJY3VlE8JpcAACAASURBVAIBAgQIECBAgAABAgSqFxAeq29CFSBAgAABAgQIECBAgEB5AeGxvLESCBAgQIAAAQIECBAgUL2A8Fh9E6oAAQIECBAgQIAAAQIEygsIj+WNlUCAAAECBAgQIECAAIHqBYTH6ptQBQgQIECAAAECBAgQIFBeQHgsb6wEAgQIECBAgAABAgQIVC8gPFbfhCpAgAABAgQIECBAgACB8gIr4bF8UUogQIAAAQIECBAgQIAAgZoFHtc0zbZt27bVXAf7TmBFIK6I6M86BAECBAgQWEwB5+nFbBd7RWAWAdNWZ1HymqoEnJSqai47S4AAAQIjE3CeHlmDq+5SCQiPS9WcKhMCTkr6AQECBAgQWFwB5+nFbRt7RmCagPA4TcjfqxNwUqquyewwAQIECIxIwHl6RI2tqksnIDwuXZOqkJOSPkCAAAECBBZXwHl6cdvGnhGYJiA8ThPy9+oEnJSqazI7TIAAAQIjEnCeHlFjq+rSCQiPS9ekKuSkpA8QIECAAIHFFXCeXty2sWcEpgkIj9OE/L06ASel6prMDhMgQIDAiAScp0fU2Kq6dALC49I1qQo5KekDBAgQIEBgcQWcpxe3bewZgWkCM4XH++67rzniiCOa/fffv7nyyitXbfNv//Zvm9tuu635wAc+0Oy0007t33784x83xx57bHPjjTeuvPakk05a9d60zTvuuGPV9vbaa6/m2muvbQ444ICJ28rf8PGPf7w5/PDDp9XT30ckMMtJ6TWveU1z1VVX9aqkPvjggw82l1xySRN97P77729e8YpXNPfcc0/ve6J/x2uj38fr+vrkpD4fG+z2+xE1l6oSIECAwMgE+s7T8X3yXe9616rvgMGSzp1nn312e26N1917773bfR/te90NN9zQnsP32GOP7YRjO+nvO+6443bfW9Mb8u+Zn/jEJ9rvw30/hx12WPtd+JFHHmlf0/1+G+/pfhceWbOr7pIIrCs8xoHQDWvd8Hj77be3X54POeSQVQd2fFn/2te+tnIQx0F+/PHHNxdccMFKUAzTODDPOuuslQ+PFEQnfSFfknZQjQEFZgmPeXHR5+KCRX4BJPXFFB7zE8+kPjmtr07q8wNW3aYIECBAgMDCC0wKj/H9L4WwNCCxmfD4sY99rNl7772bK664YmWAI53fI+A973nPa7+XpvDY/a7Z/U466ftCDj7pXJ/qceSRRzZnnnnmwreRHSQwSWDm8BhBb5dddmm+853vrLqKk4fHKCRGXg488MDeAyMCZPzE6OVaX6T7tjktPPaNgGr2cQrUHB5TAJ10DI2zRdWaAAECBJZJYFJ4jJlsDzzwQJMHrM2Ex9hefHc95phjVg1UpO+jaVBjUnjsflfdTHiM9vNddZl68Xjrsq7wGFdKIvjFgZimr+YHwt13392cdtppzeWXX77qIE28MSp5/vnnN1dffXX7q76Rx/h9/rpJB/R4m0zNpwnUHB6n1c3fCRAgQIBA7QKTwmNMR42Za/kMtM2Gx5jq+tBDD60MasT24rvqoYce2rz//e+fOvJ48803r3znFR5r73n2fwiBdYXHmGIaPzEKeOmll67MPU/3PN5yyy0r94j1zS/Pr+DsvvvuE8Nj/rp99tln4jz0NN2gr6whcGyjToFFDo+T7oPoTtOpU95eEyBAgACB6QJrhccYnIiRwQh8+T2EG7nnMb6fXnTRRe201bgNJabCRgCMQBghNd2astY9j/n5ea17HuN7cQyymLY6vf29om6BdYfHWMgmv8n4+uuvX1kwp2R4nDZtte5msPdDCixyeJw02j5k/W2LAAECBAgsssC08JjfH3j00Ue3C9BsNDxGAL3wwgvbbcR32AimERzjpxseu9810zoeacBk1pHHSReKU8Bc5LaxbwSmCWwoPKb7smL66p577rkSHk1bncbt7/MQEB7noawMAgQIECCwMYFp4TG2mharicAVIW8z4TEGN2K08Zxzzlm5vSoWgZwWHmM/8vU6Zg2P3QvF3UUjN6bmXQQWQ2BD4TF2PV2NecYzntE86UlPaqcWxM9WLZizGJz2YhEEhMdFaAX7QIAAAQIE+gVmCY8puH31q19tfvSjH63cLjUpwMX30nzdjXxNjnh8RrrP8Vvf+lZ7D2NsZ9bwGAMlMSV1o+ExDbpEnboru+sjBGoT2HB4jIrGgdldVtmjOmrrAsu3v8Lj8rWpGhEgQIDA8gjMGh7z5yOnR8VNeuRFfp9k3NvYXdk0Pd85bWeW8NgNpBsNj/mgS/dRdsvTqmoyFoFNhcdJV1LS72+88cYVx+6DUSc9ML27CE7ftvLGSdu1/PFYuuz0em51eMz7fdrbOFlF3550H0S8LqbmnHDCCWuO3k+vvVcQIECAAIHFFpg1PEYt0iI1+XPGZ/me2f1emIfFWGixLzxOOn/Hiq35vvTp7rXXXu0zo9daEDLVxb2Pi90/7d3aAjOFR4gEahJYb3isqW72lQABAgQI1C7gPF17C9r/MQsIj2Nu/SWtu5PSkjasahEgQIDAUgg4Ty9FM6rESAWEx5E2/DJX20lpmVtX3QgQIECgdgHn6dpb0P6PWUB4HHPrL2ndnZSWtGFViwABAgSWQsB5eimaUSVGKiA8jrThl7naTkrL3LrqRoAAAQK1CzhP196C9n/MAsLjmFt/SevupLSkDataBAgQILAUAs7TS9GMKjFSAeFxpA2/zNV2Ulrm1lU3AgQIEKhdwHm69ha0/2MWEB7H3PpLWncnpSVtWNUiQIAAgaUQcJ5eimZUiZEKCI8jbfhlrraTUrnWTQ84Pumkk5orr7yyXEEj23I8zPqss85qwvWcc85pjjjiiOaOO+5o8odi5yR33XVX8773va/5/Oc/39x5553tn/bbb7/m4IMPbk455ZTm//yf/zMyQdWtRSA93P2BBx5o+3c8rN3P+AScp8fX5mq8PALC4/K0pZr8/wJOSuW6gvBYxnbW8PjYY481F198cfOOd7yj3ZHnPve5zT777NP87Gc/a77yla80X//619sv43/zN3/THHvssU0cC34ILJKA8LhIrbF1++I8vXX2SiawWQHhcbOC3r9wAk5KwzXJtm3bmq997WvNVVdd1dx+++3N3XffvbLxCCnPetazmqOPPro5/PDDm1/+5V8eruCRbSkPj2984xubI488svXORx7/53/+px2dvPzyy5s//dM/bd72tretGmGMtopw/1d/9VdNhMwrrriiHcH0Q2CRBITHRWqNrdsX5+mts1cygc0KCI+bFfT+hRNwUhqmSR555JHmDW94Q3PNNdc0P/dzP9eOcj35yU9uPvnJTza/8zu/0+y2227taNd9993XHHjggW2Y+e3f/u1hCh/ZVj72sY81f/Znf9a8/vWvb84///zmuOOOa775zW821157bXPAAQe0Gtddd13zmte8pjnooIOaD37wg81Tn/rUXqWYThwh8/nPf377/p133nlkmqq7yALC4yK3zvz2zXl6ftZKIjC0gPA4tKjtbbmAk9LmmyAf5XrRi17U/N3f/V07PbI7bTVGuGIKZQTHpzzlKW3QfM5zntOOep166qltGIpRte7Ppz71qeb4449vXvnKV7Z/f+tb39oGnr57/PqmyqaRuvz1EWTPPPPM5gtf+MLKdiJsxajpWtu99NJL2/fFT4z2veIVr2gOOeSQ7e7pvOWWW9p9/oVf+IVVoe5HP/pRc9lll7VlfPvb396urs973vOm3tv1pS99qTnmmGPa+xVf97rXtXb/9E//tPK+9IX7s5/9bLtfL3/5yyc2ctxL9qpXvar51V/91TaI/vqv//rKayOQht0Xv/jFNvT/2q/9WvNHf/RHbZl990n+67/+a9u2n/70p5vvfe977ZTY6A9xX2a8Pnndc889E/dnr732WvGK0dFwfPvb39584xvfaPdhp512ai9M/MVf/EVz1FFHtRcq4if+lu79zDeeXn/66ac3L37xi1em5iajG2+8caZ9SS+Kct75znc28b5ov24d841Ff7r55ptXtX/6e+qTeX/q66fx+nCIqcXxv8MOO6z5wAc+0Dqkn7inNfptHCepnWJ0/+yzz25+5Vd+ZeoBPsku3pj2L+oSswqi7I985CPNhz/84ebee+9t2yKmPEdf784mSH09+sN3v/vd5tFHH12zD8XrL7nkknb78e84FmJkPOoW/fSiiy5qrr766ubv//7vmyc84QnNH//xH7cmu++++0od13tMprrHxa3kGp9nb37zm5v3vOc97YWv3DsdE/H5EX18hx12aD/r4hjrM5iK7wUzCThPz8TkRQQWUkB4XMhmsVObEXBS2oze//feGAl77Wtf2waPGOVKAaQvyOVfhF/96le3YfJf/uVfmpe97GVtgIkvjrvsssvKTsXrI6xdf/31bdh8wQte0AaazYTHCLEnnnhi8+Uvf7l54Qtf2H7pi1HQocJj2v6HPvShJg9DEVgi9Nxwww3tFN7f/d3fbR7/+Me3df3v//7v9kvx0572tKnh8fvf/34bnGLK6p/8yZ+0gS1CcPqSG4vnxJfZJz7xia3bM5/5zHU1cpi///3vb84999zmv/7rv5o/+IM/aJ7+9Ke37RRfzuPLenyxjlHN9HPrrbe2dbv//vvbCwL77rtvGxjy10fd4n3x5Tx+InzddNNNzaGHHtrsvffe7e9+8Rd/sd1OBNUI2REOYtT093//99sv6rH92267rQ0i8be//Mu/bN+XQkDsb4yi/vzP/3z7++985zttO0fYiEWDInDETwqPsd8RiLshK8LBf/zHf6wKfvG76Odf/epX29HzqGeEms997nPNrrvuup3JUOExgnNcLPjnf/7n7cJjhNi46PKDH/ygHXX+zd/8zZV2evazn922Y1iu9TPJLt4TiypFH4u6xEWL2P5nPvOZtk/EcRp1D+MYCY9QnUauI1ilEfG0Xz/96U9X7rWNNorPimc84xntrj388MPNCSec0Pb9sI3+861vfav5t3/7t/YCTBwfEU5j+3Gspr4V4TXfzqTwOOmY/L/tnXvIFNX/xwcNM0qzzAxTLAm7U6ZpUWoWahcTu1BqBZVdQPOWf1SElWmZhaH9EWhZRH+U6T+GCpGpaUFUBpVJlindVMJuKBpk+uV1+H32d555Zndmd3afPfvseyAqncuZ1zmz57zP55YkHteuXes2VAYOHOjG3eTJk923tHz58ohNCA5+N2gL7f7www/d+OPvFixYUPimy/rodHJJApqnNUBEoHEJSDw2bt+p5UUIaFLKPzSwfGE9xHLFgt6OYglzbIGHW+vKlSujXr16OTG3evVqZ1nAQmQHi0eEEpZKc6vMKx5Z7LEYR5RivbOjWuIRq8z06dOjffv2tRCPWGB4LqKR9/RdRG0RS1vyZpU07klWqiy9jRUTaxIHVp/hw4e7//ZFJSIC11j6jgU0FlgS8GCxQTTYd2UC8KabbnL3YhFuR5L1zf6Oe7GhQL/HBRCWUJ6BKKINnJMkAuxeiAv6+dZbb42WLFniFvcmHrHa+e6+/ljwrYa+NZeNC/5B6HKYqPCZ8OfVEI8IbQQywozD71Msf4wnLLnFuBPvyjuXijEuxS7+bSDy8SxAcHMgsMn6yyYAVkre2TZ8eO6TTz4ZzZo1q2Dx9d+HfqH9HOY+zUYO94Ft/N2xLC9dutR9NyR9QqixwcEz+IcxV0w8Fvsm4+/OJgMbBIhTrsEiycEmwcSJE6Pffvut1SbB999/77wi2LioZLMmyzfZ7Odonm72EaD3b2QCEo+N3HtqeyIBTUr5Bobv/sciGqFnRzHxaAs2RIct3C1GDxGJqLDMnwgphAzC1NxF84jHMWPGuMUsi0wWh/379y+0txricffu3c7q17VrV7eYZGFv74iFECEwf/5851LoHyGJRzjjGuy7VFpbsR6xuH711VedxYfFv4liBAWWRRNVXIOARhAcPnzYWZl9d9dS4pH7LFq0yPW99bu1IYlVKQFkggJrr1lnyxWP5jqN1SseG+qLJd9NuBriESsYFjk2VBCz/juYu7dZ8M2KDScsbXDH6orF3jYAkr72csTj008/Hc2ePbvFbWwzBisgfBn3CEr7vvv27dvi/Hi/W19gicZaz33sWL9+vRtjnMO9/aROtrHEhoR5LCSJx1LfZPzdSfLFRghi0H9PxDEutFhF4e5nJk4bS/l+YXU1BDRPaxyIQOMSkHhs3L5Ty4sQ0KSUb2gcPHgwYvHK4o2FM4vGNPGI2yVWoP379zvLEbFN7PSzs4+FxHb8WZRjMWIB6S8qKxWPWDmJFaONLEKJr/IXgdUQj7SNxSVZTlns+patd99911nTWAzHF6ChiEf6BKserpKIDqyk8cMS9tA3xCNaf2CRIh4y61FKPPr3+P333537Im6bWCQtky+WPrPSFhNAjCFEK8mcfO5pC/648MOyhXBKEv60Nc6EP8srHq2NuGzCGmu2iUcsZGy0MMbimzbGjvHNe6f1S1bxiIBKGhNsELBhguts3PKG9XDv3r2u73B7Rsxa4izbnKD2KN8FLt5sSOCREN8ogIX9Vtjf2W8P97MNmiTxWOqb9N+dsUxcJe65Fo+dNJZpC+7TfNvEQFrZG/OOsKRVWb8DnZdOQPN0OiOdIQKhEpB4DLVn1K6KCWhSqhhd4cK5c+c6y2DcAlLM8mhWHGKKzO3QhCKLcHNdNUHJgtncDXmoiY5SLUcgImaTzmchjggghs4/8opHi00jHgp3OmL3fPHouxkiRiZMmFBIfFJN8WgilfjQ+GI8rbdZ6NMuRCRi22LS/OvMGkSiIPoFUVMs0VCp56WJRyxtLOaJ57QD8U8M508//eSS1cTFYzzmkfOIy+NcxhUbFRzlikcbG7iNEv8ZP0jwggWWOFCzbto1pRiUSpjD+MUddfHixc49GIuYiUfuiVUWqx9xnN27d2/1mD179rj4Wv9bSGpLVvFILG3SmEhiSfZl2o4IY0zZgatxly5d3OaEvXuSZdjOt/GIJTXJnTv+zcbFY9o3GU8WRPuwqidZahHAeAzAnJhbDn5DuIbvhSPJBTrtm9PfpxPQPJ3OSGeIQKgEJB5D7Rm1q2ICmpQqRle40BZoWCBwNSR5BkeSeLTEGCTd8BOecH48qyrWxmnTpjkrnp8x1EQH9Q1JVOIfSQtmOx+BQ3IPFvdkAPVjsbhHHvHIAp/7YbWg3Sz2WdzHY+p4bxKcsBBNOrJkW03rMbPkkGgkLQYL0Y61EKGOqMZlMKt4vOGGG5xoJKFItcWjJS3hHYiXJHHLRRdd5JK0EHdm7otx8YjASTp4r2effdZlf+WoVDymsfdjEhlPiK2khDyWLKiYeCTZDZZS3KoRkVhck8RjqWyx1tZqiUeyrSYJuDhLkt1gFeU7ILEOfYU1DvdVRG5806CUeDSrJr8b5YrHLN+kiUeSMvEbQ4xu586dW8XZ2m8c55PJliRPgwYNct/5v//+m/itp40V/X12Apqns7PSmSIQGgGJx9B6RO3JTUCTUm6E7gZ+JkLcHlmwspDHPZX/xoUO4cSCjmyZnEMMoF9ywKwMR44ccRYzLBdkXMQa6cdNVeq2yuIT8cDClhIQuI76MVR5xCPvSWwa8YDENZYSJ1ipEGy8o2XtZAGaNdtqWo9ZvBsCLK1Uh1l3SXyClQiRlea2ynnEhJnbalb3yHi7i1keias0l0wypBK75x/lxDySWGXNmjUuXs1cohFk5YpHc1st5iKa1CeVuq0iONl04FlsdAwZMqSQCCbutopVtph7cdo4sb/PanksVnbEvtu//vrLbVaQXAbhSwkLLHFk2fWPeL+zoTN+/Hh3nnkixNuGiypilA0EO9LcVrN8k/F3Z/OHTKtDhw518bv2+2T9j0cBnhaKecw6uqpznubp6nDUXUSgHgQkHutBXc+sKQFNStXDm+RmGL877oNYE1lYJ2WAZJFGZkkyKeISySLOT6DD/fKIR6wGZumw0iJYHTgqFY9YVXBjIzYNQcj9iokTvyYmHCyzZDXdVnkXK5+C2LCsqPG+wOrI83HFI+bMsnJmTZhjMa5mMU5KmIMQZPOAeDdi7/x4sGLiMU3Y2fNIvpMW88g78560gUydVsMz7Rlx4WeJm+IJnUp9PZWKR74B+gxLWDyLqJ8wx/gRq+dnDS73i84qHrEuJz3LEuYQH4vLJ5sgbMokWTxtY4PxaVbXUglz7FvlHESyZXnlHW3jAzfYeMKcrN9kUrZVPAgQ7WwusUmS9ttgmYHZAJLbarmjL9v5mqezcdJZIhAiAYnHEHtFbcpFQJNSLnytLmah/s0337i4IP4h5opC2yz6+DcxYX65hvgNbCFKrB0WDBb8xO75R17xiKCxBaKVF0hbIJoLru9maAtbXOrIMIpV1bLNFhMnCCgEAe6pvqirtnj0RSrWVp6LJcgOLHIsjrEakqDEr9uYpVQH1jurr4cbKYtskofg9ofbq1lmcKskJvKCCy5olaU0i+WR9lEWw+6HCMXCS31G38W3lACy9mHNs1qh5YrHUu+IIEKAYzHE8kz9TRtPxax1Se9uf0biFeI6aWu/fv3cvZJcO60+KnGefkkVzrcSGlj/seDj8lrsKEc8IsrYNDALoD0HCyiJiRj/FhNLbKhf95UxRxZf4ljZbPG/JSvVQTvhwMaSP4aNZ9Lf+Rlgy/0mk97d7kH77Rs1yyMu2nxLllHY3p/fB7+ma3V/VXU3zdMaAyLQuAQkHhu379TyIgQ0KdVuaBRLmFPqiVYzEJdLEoHEyyJwbV7xyD0shgm3NFukm+WxVCwlsU4kimERSWwhi13KceDqyQLYFpVJ4sREGe59fsF62lNt8cg9YUl8JXUSeU9cUhGQiA1ch4m7Y8HLgp5YPTv8eo6cS9waC2nECgvr3r17t6j1x3WIORIEkYXSisJbshriUn1xas8plTAHSx/WNERG/H4Ubqf0B+03S4/xiyfM4Xp7V/qV+FkEAf2POys82OCwen7WtiSrIffB8ki24AEDBrhC9j5LOLHZQQKVPOKRJCy+1auYeOTPseDRxySoYXMG0ekXrif+GEu+X1M0/v1lFY+IYzYaYEpSKEqDbNy40cWgkiwLoc/4Z+wzFuCK+KW/OBeXUMY+ZUdWrVrl/m1JrWgz3xSuumwKUBIFy+Lnn3/umotVj/hXMuzCHXd2+sOv/ehzyvpNJr0745/NAMStCVz7dhlz5mrOe65bt87FpZrQNMt27X5Vm/POmqebs9/11u2DgMRjBf1oLi1MOmnuRezMshhgQmVx07FjR2epmTFjhksY4cdZ0BQmOWK3SFLC4o3rWdSw8GEHmOt1lCagSal2I6QS8eiLw6Q6g9USj0kLxCzZMXm+JUWxmnD8WdxdLS4eWdRjMWNx6Rc1N/q1EI/cm98EFrhkGuW3aMeOHe6RWI6wBrNgx5U46cCSiMDbvHmzE7eIIq4hXtOv12jX7tq1y8WxYm3kfO6LyMBySHH5+FFKPNI/lIbAfdmS4PDbhkjnt42xgcXJak3Gs2b6z+LZiAyszR06dHDJTWgjLqBYwcaOHduqbcVcTu0dyawKS4QeAhRhSqzcSSedVLhXpW6rftIdu1mppDLxfrKNAjY2YJXkHu6/cFbxiBUV6yKWRdxEid0tNt/wd4hJzrOxgFjElRUhmRTjiAWX8cNmB4IUETl16lS3uYMXAn2FEEawUkcVCzciz2dunLJ8k2xKFHv3pM0lOD/11FPu+XzfllyKfseVGus7WadJBKajugQ0T1eXp+4mAm1JQOKxAtoskFjoUJeLxUqSJYXb4kpHBkjijoiZYreWw3Z2WXD62SGtfhkuSRzxneD4+RU0vSku0aQUXjeTkIJaj/GC4fVuqQlC2mHlGOrdJj1fBNqCQCkhXMvn2zeHeEzKtlrLZ+ve4RDQPB1OX6glIlAuAYnHMomZCx4uN+zCk23SYm7it7JYL1K0k3SgR48e7hR2t9ltxz2KBTUuMhy2M4obEa5SuPP457PzG89OV2bzm+J0TUphdTPuaFiGqAGJlQMrRSiHxGMoPaF2tDUBice2Jq7n+QQ0T2s8iEDjEpB4LLPvLCsgi+Fhw4a5lPO4tsSzR3JbXFWJcyGlPGnO/cOC9f14CjIiYv2wgur++dwfiyRxRrhT6ShOQJNS/UcHBbZxT6P2IRYGNkSsREH9W/f/LZB4DKk31Ja2JCDx2Ja09aw4Ac3TGhMi0LgEJB7L6DvcShF4xOQg8IjfsOLbvgUx7ZZW84x4E7NaknQAEUo2unhdrLT76e9bEtCkFMaIIOkHLtvE0hWLQwujpWqFCDQfAYnH5uvzkN5Y83RIvaG2iEB5BCQey+CVVIOKWC4C6tMS59hjsMKQQAA3VpIo4MZH8gOy/VEAGdc+ihaTLZEEEKUSGJTR9KY6VZNSU3W3XlYEREAERKDBCGiebrAOU3NFwCMg8VjGcKDuFru1fg0qi2tMqnnm3zqeOZD7kLmODHMcllGODI6kaN+3b59LH46VksyKpFJXwpxsnaVJKRsnnSUCIiACIiAC9SCgeboe1PVMEagOAYnHjBxJOU584yeffOJcTYcPH+6utD8n1XlSrKLdnpTguPBxUBuL4tZjxoxxFkuKp5t4pJZVvM6VFdGmxpr/7IxNb7rTNCk1XZfrhUVABERABBqIgObpBuosNVUEYgQkHjMOCbMwUgcqntKfpDgkB6GocpZsksQ1UieN4tYUzV64cGG0ZcsWV5ycoslJ5QwQjao5la2zNCll46SzREAEREAERKAeBDRP14O6nikC1SEg8ZiRo2VHLXU6hauz1rHbvn27K6pMrcgVK1ZEu3fvju68886oV69ergjzaaed1uJRZpkcOXKky+KqozgBTUoaHSIgAiIgAiIQLgHN0+H2jVomAmkEJB7TCEWRKzUwceJEl9Tm2muvjTp37tzqKmo0bt68uUU8ZKlbW3bVPXv2uELJHTp0KJTgQEyefvrpLS7HCrH1FwAADh5JREFU1ZVyH6NGjZJ4TOkzTUoZBrVOEQEREAEREIE6EdA8XSfweqwIVIGAxGMGiJTOIMENlsJibqlW//G8886LKNvRvXv3iFIFGzZscHGNV199dYsnffHFF9Edd9wR9e3b15XmIHHOgw8+GK1evToxdtJcY59//nlXLkRHcQKalDQ6RKB+BIgDx83/mGOOia666qqoU6dO9WuMniwCIhAkAc3TQXaLGiUCmQhIPKZgItvplClTorfffttZ/HAtTTr++OMPF7O4adOmwnmcT2zj6NGjo6VLl0Ynn3yyu5Rzp0+f7kSjLwbfeecd96wrrrgiQiz27t3bnW8Jc7BWEvs4YMCATJ3brCdpUmrWntd7tyUBygi9/vrrbsOLzbC///67xeMnT57sfsf4Hhv1YNOQLNv8Tl955ZXuN57jzTffjC6//PJGfS21WwTqTkDzdN27QA0QgYoJSDymoDML4amnnuosinF3Uv/yF154wYnFCRMmuDqO//zzj7M+ssAiHpLSGxwbN26Mdu7cGd1zzz2unqOJShLpzJkzx1kqeR679laq49ChQ+7vEJ06ShPQpKQRIgK1JfDll186bwxiseMH8dpDhgyJ5s2bF1HCqJEPicdG7j21PWQCmqdD7h21TQTS19lsCx89evSoWCUQMEGICOS/Sx0mNDnHEufgwkUCnFdeeSXatm2buxzLIWU/EJnHHntsi1v+999/ERZIzud+HOx4z5gxI7rmmmsaehe/rQaYJqW2Iq3nNCMBftNwsf/ggw/c79Ldd98d9ezZs12i8MUjm3l4nvAbLctju+xuvVQbEtA83Yaw9SgRqDIBWR6rDFS3qz8BTUr17wO1oP0SsLJFuKXiadHIbqlpvfTcc89Fjz32mAtFuPHGG11Ss8OHD7skZ3369Em7XH8vAiJQhIDmaQ0NEWhcAhKPjdt3arkmJY0BEchNwJJxFfOusGRg1JnF+2LJkiXO3Z74659//tklESPbdMeOHUt6SWCxfO2111ysN14YnE/d3Pvvvz+67bbb3P/bYc9ZtmxZ9PXXX7uYcf6N+/8tt9wSzZo1KzrppJMK5yeVMiK2HOG3fPly5+WBADRPEsTfzTffXLgezxvCAvhn3LhxhVq+eIFMmjTJeZKMGDHChRpgeYzX+s3dCbqBCDQZAYnHJutwvW67IiDx2K66Uy8DAU1KGgcikJ0A8Ytkfu7Ro0erGrOIKrI7kzAMsUjWaGrerlmzxsVkIyT79+8fDR48ODpw4EC0bt26iPjsJ554Ipo5c2bBKvnLL79EDz30ULRq1arowgsvdEnBiOe2+O9p06a5pDTmxo/II1ENceI8a9CgQe45n376afTZZ585IYegPOuss9yLJolHxOLjjz/uyhvh8o9ILSYeEb+UQtq6dWsL8UiJJN4DgXzppZdGU6dOdZZH1drNPr50pggkEdA8rXEhAo1LQOKxcftOLZflUWNABHITQMQVKxP0448/OqvgKaec4uL8SO5lcYA8OC76LDP0jh07IqyG119/vROJjzzySLRo0SInIHEFPf744127TVQSP4l45N4cJvJIvvPMM884ix+TFdbLRx991GVxxWWWe/HncfFo2a9POOEEZ+205yWJRxKVPfzww9HLL7/snu1bHnPD1Q1EQAQSCUg8amCIQOMSkHhs3L5TyyUeNQZEoCoErJYtIhKBZXGMuHeSEAdLotWXNfE4bNiwxAzU8bq4CEosm926dXPWy379+rVos8VQnnvuuc6lFaFqIu++++5rVVv3u+++iyZOnOjcXHErpVZuXDzy52Sm5j5+eaUk8bh27drogQcecDGN77//vrOMyi21KsNKNxGBogQkHjU4RKBxCUg8Nm7fqeUSjxoDIlAVAibIsNBZSSJcVrEUrl+/vpA9moeZeOTvKCsUP7Zv3x6NHz8+Ou6446IVK1ZEW7ZsceIRwYcrajzBDvVriaf89ttvnXjEPdREHvGKWD79wyylCD1zpfXF4+zZs10b9+/f7+7Xq1evwuVx8UhtSsQxZZV4HwSnxGNVhpRuIgIlCUg8aoCIQOMSkHhs3L5TyyUeNQZEoCoETChiscPNEyucCUrEFLGNnTp1cs/yy1eYNdJvBEl0SGrDgeWSmEWumT9/vnM5jR9JYtBiHhGHxEfGD2uDJb4x8fjDDz+4UylvhFA9//zzW1waF4/ELuIWu3jxYicy77rrLonHqowo3UQEShOQeNQIEYHGJSDx2Lh9p5ZLPGoMiEDVCMSzqpJhlJjGl156qYXrp5WvIEaxmuJx06ZNzpKIWLRsq8XqKRYTj7jSDh061AnCiy++2CXVIU7TDl888vckySERDyKSuroSj1UbTrqRCJQkIPGoASICjUtA4rFx+04tl3jUGBCBqhHYu3evK2lx5MiR6I033nAC7KuvvirEFdqDEHi4mRYr7UE2VOIMseS99dZbLkNqKbfVffv2ufN37drVym01XlKDNhw8eDAiFtLEJhlg4zGPiEES6nDeggULClZTE48rV650pT9wiyW+cciQIYV7yG21akNKNxKBogQkHjU4RKBxCUg8Nm7fqeUSjxoDIlBVApThIOsoggtXVax4fgIdHoaFDjHYp08fl4G1Z8+eLdpgdSMnT57ssqIiQLMkzCGRDmKTDKsm8qjnGH++udN26dKlcH5cPFosI23FDZdSHRx2X96TeEhEK//tZ2yVeKzqkNLNRCCRgMSjBoYINC4BicfG7Tu1XOJRY0AEqkrAMp+eccYZ0a+//urcPrHs+Qcxiog6hGG89MZHH33k6ilymEUva6mOOXPmuJIZvsg755xzohdffDG67rrr3J/7pTp8t9mkOo/Eb06ZMiUaPXq0E8IkAzLxSEbXs88+u0X2V7uHxGNVh5RuJgISjxoDItDOCEg8trMO1etEzopAAhAdIiAC5RGw+oiUr6BGo9V2jN+FOo6Ut9iwYYNLMEOc4oEDB6J169ZFhw4dcqU9Zs6cWcisavUcV61aVTgfUblx48Zo586d7l4Iu65du7YQjyS84doRI0Y4i+THH3/s3E1vv/12ZyG1eMYk8YjQpPTIe++958p9kLXVxCP1HxG/uN/aIfFY3ljR2SKQh4Dm6Tz0dK0I1JeAxGN9+evpNSCgSakGUHXLpiFgAqtYQhwD8eeff0YLFy50GVUps3HiiSdGgwcPdlbJUaNGtSrJgZjDhRR30W3btrk6jZdccomzVCLs+H87rA0k7dm9e3e0bNky9wzOp7TGvffe6yyJceE3cuRIl/zGDkTwpEmTossuu8xZQrGkEgs5bty4VrUcJR6bZojrRQMgoHk6gE5QE0SgQgISjxWC02XhEtCkFG7fqGXhE5g7d66r9YhwQ6zV44iX1KhHG/RMERCB2hHQPF07trqzCNSagMRjrQnr/m1OQJNSmyPXA9sJAZLbYNkbOHCgc/W02o5t/XoSj21NXM8TgbYloHm6bXnraSJQTQISj9WkqXsFQUCTUhDdoEY0CIH9+/dHU6dOjbZu3eqS5HTr1q2Q7KZeryDxWC/yeq4ItA0BzdNtw1lPEYFaEJB4rAVV3bOuBDQp1RW/Ht6ABKjZSEbSM888M5o3b140duzYur6FxGNd8evhIlBzApqna45YDxCBmhGQeKwZWt24XgQ0KdWLvJ4rAiIgAiIgAukENE+nM9IZIhAqAYnHUHtG7aqYgCalitHpQhEQAREQARGoOQHN0zVHrAeIQM0ISDzWDK1uXC8CmpTqRV7PFQEREAEREIF0Apqn0xnpDBEIlYDEY6g9o3ZVTECTUsXodKEIiIAIiIAI1JyA5umaI9YDRKBmBCQea4ZWN64XAU1K9SKv54qACIiACIhAOgHN0+mMdIYIhEpA4jHUnlG7KiagSalidLpQBERABERABGpOQPN0zRHrASUIMP505CMAwaNHjx7NdxddLQKBENCkFEhHqBkiIAIiIAIikEBA87SGRT0JaPzloy/LYz5+ujpAAvpRCLBT1CQREAEREAER+D8Cmqc1FOpJQOMvH32Jx3z8dHWABPSjEGCnqEkiIAIiIAIiIPGoMRAAAa0T83WCxGM+fro6QAL6UQiwU9QkERABERABEZB41BgIgIDWifk6QeIxHz9dHSAB/SgE2ClqkgiIgAiIgAhIPGoMBEBA68R8nSDxmI+frg6QgH4UAuwUNUkEREAEREAEJB41BgIgoHVivk6QeMzHT1cHSEA/CgF2ipokAiIgAiIgAhKPGgMBENA6MV8nSDzm46erAySgH4UAO0VNEgEREAEREAGJR42BAAhonZivEyQe8/HT1QES0I9CgJ2iJomACIiACIiAxKPGQAAEtE7M1wkSj/n46eoACehHIcBOUZNEQAREQAREQOJRYyAAAlon5usEicd8/HR1gAT0oxBgp6hJIiACIiACIiDxqDEQAAGtE/N1gsRjPn66OkAC+lEIsFPUJBEQAREQARGQeNQYCICA1on5OkHiMR8/XR0gAf0oBNgpapIIiIAIiIAISDxqDARAQOvEfJ0g8ZiPn64OkIB+FALsFDVJBERABERABCQeNQYCIKB1Yr5OkHjMx09XB0hAPwoBdoqaJAIiIAIiIAISjxoDARDQOjFfJ0g85uOnqwMkoB+FADtFTRIBERABERABiUeNgQAIaJ2YrxMkHvPx09UBEtCPQoCdoiaJgAiIgAiIgMSjxkAABLROzNcJEo/5+OnqAAnoRyHATlGTREAEREAEREDiUWMgAAJaJ+brBInHfPx0dYAE9KMQYKeoSSIgAiIgAiIg8agxEAABrRPzdUJBPOa7ja4WAREQAREQAREQAREQAREQARFo7wT+B5jv/5QEFxJEAAAAAElFTkSuQmCC;" vertex="1" parent="1">
          <mxGeometry x="157.83" y="530" width="944.34" height="770" as="geometry" />
        </mxCell>
        <mxCell id="QvXpTpCXxzrsCJCGJff7-12" style="edgeStyle=orthogonalEdgeStyle;rounded=0;orthogonalLoop=1;jettySize=auto;html=1;exitX=0;exitY=0.5;exitDx=0;exitDy=0;entryX=0;entryY=0.5;entryDx=0;entryDy=0;" edge="1" parent="1" target="MUi1yYkGbGkddvzHHs3n-1">
          <mxGeometry relative="1" as="geometry">
            <mxPoint x="170" y="805.0967741935483" as="sourcePoint" />
          </mxGeometry>
        </mxCell>
        <mxCell id="QvXpTpCXxzrsCJCGJff7-41" style="edgeStyle=orthogonalEdgeStyle;rounded=0;orthogonalLoop=1;jettySize=auto;html=1;exitX=1;exitY=0.5;exitDx=0;exitDy=0;entryX=0;entryY=0.5;entryDx=0;entryDy=0;" edge="1" parent="1" source="MUi1yYkGbGkddvzHHs3n-1" target="QvXpTpCXxzrsCJCGJff7-40">
          <mxGeometry relative="1" as="geometry">
            <Array as="points">
              <mxPoint x="510" y="805" />
              <mxPoint x="510" y="915" />
            </Array>
          </mxGeometry>
        </mxCell>
        <mxCell id="QvXpTpCXxzrsCJCGJff7-48" style="edgeStyle=orthogonalEdgeStyle;rounded=0;orthogonalLoop=1;jettySize=auto;html=1;exitX=0.5;exitY=1;exitDx=0;exitDy=0;entryX=0.5;entryY=1;entryDx=0;entryDy=0;startArrow=classic;startFill=1;" edge="1" parent="1" source="MUi1yYkGbGkddvzHHs3n-1" target="QvXpTpCXxzrsCJCGJff7-43">
          <mxGeometry relative="1" as="geometry" />
        </mxCell>
        <mxCell id="MUi1yYkGbGkddvzHHs3n-1" value="&lt;span style=&quot;font-size: 14px;&quot;&gt;Анализ задач&lt;br&gt;горничных&lt;br&gt;&lt;/span&gt;" style="html=1;align=center;verticalAlign=top;rounded=1;absoluteArcSize=1;arcSize=10;dashed=0;whiteSpace=wrap;" parent="1" vertex="1">
          <mxGeometry x="270" y="780" width="220" height="50" as="geometry" />
        </mxCell>
        <mxCell id="gx2m8ANJ89_CgAaHZRdq-5" value="&lt;font style=&quot;font-size: 11px;&quot;&gt;Задачи&lt;br&gt;горничных&lt;br&gt;&lt;/font&gt;" style="text;html=1;strokeColor=none;fillColor=none;align=center;verticalAlign=middle;whiteSpace=wrap;rounded=0;" parent="1" vertex="1">
          <mxGeometry x="150" y="790" width="140" height="30" as="geometry" />
        </mxCell>
        <mxCell id="QvXpTpCXxzrsCJCGJff7-28" value="361" style="text;html=1;strokeColor=none;fillColor=none;align=center;verticalAlign=middle;whiteSpace=wrap;rounded=0;" vertex="1" parent="1">
          <mxGeometry x="440" y="800" width="60" height="30" as="geometry" />
        </mxCell>
        <mxCell id="QvXpTpCXxzrsCJCGJff7-39" value="&lt;font style=&quot;font-size: 11px;&quot;&gt;Система&lt;br&gt;&lt;/font&gt;" style="text;html=1;strokeColor=none;fillColor=none;align=center;verticalAlign=middle;whiteSpace=wrap;rounded=0;" vertex="1" parent="1">
          <mxGeometry x="430" y="1090" width="140" height="30" as="geometry" />
        </mxCell>
        <mxCell id="QvXpTpCXxzrsCJCGJff7-44" style="edgeStyle=orthogonalEdgeStyle;rounded=0;orthogonalLoop=1;jettySize=auto;html=1;exitX=1;exitY=0.5;exitDx=0;exitDy=0;entryX=0;entryY=0.5;entryDx=0;entryDy=0;" edge="1" parent="1" source="QvXpTpCXxzrsCJCGJff7-40" target="QvXpTpCXxzrsCJCGJff7-43">
          <mxGeometry relative="1" as="geometry" />
        </mxCell>
        <mxCell id="QvXpTpCXxzrsCJCGJff7-49" style="edgeStyle=orthogonalEdgeStyle;rounded=0;orthogonalLoop=1;jettySize=auto;html=1;exitX=0.5;exitY=1;exitDx=0;exitDy=0;entryX=0.5;entryY=1;entryDx=0;entryDy=0;" edge="1" parent="1" target="QvXpTpCXxzrsCJCGJff7-40">
          <mxGeometry relative="1" as="geometry">
            <mxPoint x="630.0645161290322" y="1110" as="sourcePoint" />
          </mxGeometry>
        </mxCell>
        <mxCell id="QvXpTpCXxzrsCJCGJff7-40" value="&lt;span style=&quot;font-size: 14px;&quot;&gt;Автоматическое&amp;nbsp;распределение задач между&amp;nbsp;горничными&lt;/span&gt;" style="html=1;align=center;verticalAlign=top;rounded=1;absoluteArcSize=1;arcSize=10;dashed=0;whiteSpace=wrap;" vertex="1" parent="1">
          <mxGeometry x="520" y="890" width="220" height="50" as="geometry" />
        </mxCell>
        <mxCell id="QvXpTpCXxzrsCJCGJff7-42" value="&lt;font style=&quot;font-size: 11px;&quot;&gt;Лист уборки&lt;br&gt;&lt;/font&gt;" style="text;html=1;strokeColor=none;fillColor=none;align=center;verticalAlign=middle;whiteSpace=wrap;rounded=0;rotation=-90;" vertex="1" parent="1">
          <mxGeometry x="430" y="840" width="140" height="30" as="geometry" />
        </mxCell>
        <mxCell id="QvXpTpCXxzrsCJCGJff7-46" style="edgeStyle=orthogonalEdgeStyle;rounded=0;orthogonalLoop=1;jettySize=auto;html=1;exitX=1;exitY=0.5;exitDx=0;exitDy=0;" edge="1" parent="1" source="QvXpTpCXxzrsCJCGJff7-43">
          <mxGeometry relative="1" as="geometry">
            <mxPoint x="1090" y="1065.0967741935483" as="targetPoint" />
          </mxGeometry>
        </mxCell>
        <mxCell id="QvXpTpCXxzrsCJCGJff7-43" value="&lt;span style=&quot;font-size: 14px;&quot;&gt;Формирование графика уборки&lt;/span&gt;" style="html=1;align=center;verticalAlign=top;rounded=1;absoluteArcSize=1;arcSize=10;dashed=0;whiteSpace=wrap;" vertex="1" parent="1">
          <mxGeometry x="790" y="1040" width="220" height="50" as="geometry" />
        </mxCell>
        <mxCell id="QvXpTpCXxzrsCJCGJff7-45" value="&lt;font style=&quot;font-size: 11px;&quot;&gt;Задачи, распределенные&lt;br&gt;между горничными&lt;br&gt;&lt;/font&gt;" style="text;html=1;strokeColor=none;fillColor=none;align=center;verticalAlign=middle;whiteSpace=wrap;rounded=0;rotation=-90;" vertex="1" parent="1">
          <mxGeometry x="690" y="980" width="140" height="30" as="geometry" />
        </mxCell>
        <mxCell id="QvXpTpCXxzrsCJCGJff7-47" value="&lt;font style=&quot;font-size: 11px;&quot;&gt;График&lt;br&gt;&lt;/font&gt;" style="text;html=1;strokeColor=none;fillColor=none;align=center;verticalAlign=middle;whiteSpace=wrap;rounded=0;" vertex="1" parent="1">
          <mxGeometry x="980" y="1040" width="140" height="30" as="geometry" />
        </mxCell>
        <mxCell id="QvXpTpCXxzrsCJCGJff7-51" value="362" style="text;html=1;strokeColor=none;fillColor=none;align=center;verticalAlign=middle;whiteSpace=wrap;rounded=0;" vertex="1" parent="1">
          <mxGeometry x="700" y="920" width="60" height="30" as="geometry" />
        </mxCell>
        <mxCell id="QvXpTpCXxzrsCJCGJff7-52" value="363" style="text;html=1;strokeColor=none;fillColor=none;align=center;verticalAlign=middle;whiteSpace=wrap;rounded=0;" vertex="1" parent="1">
          <mxGeometry x="960" y="1060" width="60" height="30" as="geometry" />
        </mxCell>
      </root>
    </mxGraphModel>
  </diagram>
  <diagram id="30CSTh-y9SVbLgZfz-_A" name="Страница — 2">
    <mxGraphModel dx="1624" dy="840" grid="1" gridSize="10" guides="1" tooltips="1" connect="1" arrows="1" fold="1" page="1" pageScale="1" pageWidth="3300" pageHeight="2339" math="0" shadow="0">
      <root>
        <mxCell id="0" />
        <mxCell id="1" parent="0" />
      </root>
    </mxGraphModel>
  </diagram>
  <diagram name="Page-1" id="VuNbrd0BRe1khVJS3aEo">
    <mxGraphModel dx="2474" dy="1940" grid="1" gridSize="10" guides="1" tooltips="1" connect="1" arrows="1" fold="1" page="1" pageScale="1" pageWidth="850" pageHeight="1100" math="0" shadow="0">
      <root>
        <mxCell id="0" />
        <mxCell id="1" parent="0" />
        <mxCell id="2" value="" style="rounded=0;whiteSpace=wrap;html=1;" parent="1" vertex="1">
          <mxGeometry x="-500" y="-360" width="910" height="730" as="geometry" />
        </mxCell>
        <mxCell id="3" value="" style="rounded=0;whiteSpace=wrap;html=1;" parent="1" vertex="1">
          <mxGeometry x="-500" y="-360" width="910" height="100" as="geometry" />
        </mxCell>
        <mxCell id="4" value="" style="rounded=0;whiteSpace=wrap;html=1;" parent="1" vertex="1">
          <mxGeometry x="-500" y="280" width="910" height="100" as="geometry" />
        </mxCell>
        <mxCell id="85" value="" style="rounded=0;whiteSpace=wrap;html=1;strokeColor=default;fontSize=12;" parent="1" vertex="1">
          <mxGeometry x="-500" y="-360" width="80" height="100" as="geometry" />
        </mxCell>
        <mxCell id="86" value="USED AT:" style="text;html=1;strokeColor=none;fillColor=none;align=center;verticalAlign=middle;whiteSpace=wrap;rounded=0;fontSize=12;" parent="1" vertex="1">
          <mxGeometry x="-500" y="-360" width="60" height="30" as="geometry" />
        </mxCell>
        <mxCell id="87" value="" style="rounded=0;whiteSpace=wrap;html=1;strokeColor=default;fontSize=12;" parent="1" vertex="1">
          <mxGeometry x="-420" y="-360" width="280" height="100" as="geometry" />
        </mxCell>
        <mxCell id="88" value="AUTHOR: Разработчики АС&lt;br&gt;&quot;Hotel Hospitality Management&quot;" style="text;html=1;strokeColor=none;fillColor=none;align=left;verticalAlign=middle;whiteSpace=wrap;rounded=0;fontSize=12;" parent="1" vertex="1">
          <mxGeometry x="-420" y="-360" width="180" height="40" as="geometry" />
        </mxCell>
        <mxCell id="89" value="DATE: 21.11.2023" style="text;html=1;strokeColor=none;fillColor=none;align=left;verticalAlign=middle;whiteSpace=wrap;rounded=0;fontSize=12;" parent="1" vertex="1">
          <mxGeometry x="-240" y="-360" width="111" height="40" as="geometry" />
        </mxCell>
        <mxCell id="90" value="PROJECT: АС &quot;Hotel Hospitality Management&quot;" style="text;html=1;strokeColor=none;fillColor=none;align=left;verticalAlign=middle;whiteSpace=wrap;rounded=0;fontSize=12;" parent="1" vertex="1">
          <mxGeometry x="-420" y="-310" width="170" height="30" as="geometry" />
        </mxCell>
        <mxCell id="91" value="REV:&amp;nbsp; &amp;nbsp;24.11.2023" style="text;html=1;strokeColor=none;fillColor=none;align=left;verticalAlign=middle;whiteSpace=wrap;rounded=0;fontSize=12;" parent="1" vertex="1">
          <mxGeometry x="-239.5" y="-317.5" width="110" height="40" as="geometry" />
        </mxCell>
        <mxCell id="92" value="" style="rounded=0;whiteSpace=wrap;html=1;strokeColor=default;fontSize=12;fillColor=#000000;" parent="1" vertex="1">
          <mxGeometry x="-140" y="-360" width="25" height="25" as="geometry" />
        </mxCell>
        <mxCell id="93" value="" style="rounded=0;whiteSpace=wrap;html=1;strokeColor=default;fontSize=12;" parent="1" vertex="1">
          <mxGeometry x="-140" y="-335" width="25" height="25" as="geometry" />
        </mxCell>
        <mxCell id="94" value="" style="rounded=0;whiteSpace=wrap;html=1;strokeColor=default;fontSize=12;" parent="1" vertex="1">
          <mxGeometry x="-140" y="-310" width="25" height="25" as="geometry" />
        </mxCell>
        <mxCell id="95" value="" style="rounded=0;whiteSpace=wrap;html=1;strokeColor=default;fontSize=12;" parent="1" vertex="1">
          <mxGeometry x="-140" y="-285" width="25" height="25" as="geometry" />
        </mxCell>
        <mxCell id="96" value="" style="rounded=0;whiteSpace=wrap;html=1;strokeColor=default;fontSize=12;" parent="1" vertex="1">
          <mxGeometry x="-65" y="-360" width="205" height="100" as="geometry" />
        </mxCell>
        <mxCell id="97" value="WORKING" style="rounded=0;whiteSpace=wrap;html=1;strokeColor=default;fontSize=12;align=left;" parent="1" vertex="1">
          <mxGeometry x="-115" y="-360" width="185" height="25" as="geometry" />
        </mxCell>
        <mxCell id="98" value="DRAFT" style="rounded=0;whiteSpace=wrap;html=1;strokeColor=default;fontSize=12;align=left;" parent="1" vertex="1">
          <mxGeometry x="-115" y="-335" width="185" height="25" as="geometry" />
        </mxCell>
        <mxCell id="99" value="RECOMMENDED" style="rounded=0;whiteSpace=wrap;html=1;strokeColor=default;fontSize=12;align=left;" parent="1" vertex="1">
          <mxGeometry x="-115" y="-310" width="185" height="25" as="geometry" />
        </mxCell>
        <mxCell id="100" value="PUBLICATION" style="rounded=0;whiteSpace=wrap;html=1;strokeColor=default;fontSize=12;align=left;" parent="1" vertex="1">
          <mxGeometry x="-115" y="-285" width="185" height="25" as="geometry" />
        </mxCell>
        <mxCell id="101" value="" style="rounded=0;whiteSpace=wrap;html=1;strokeColor=default;fontSize=12;align=left;" parent="1" vertex="1">
          <mxGeometry x="70" y="-360" width="140" height="25" as="geometry" />
        </mxCell>
        <mxCell id="102" value="" style="rounded=0;whiteSpace=wrap;html=1;strokeColor=default;fontSize=12;align=left;" parent="1" vertex="1">
          <mxGeometry x="70" y="-335" width="140" height="25" as="geometry" />
        </mxCell>
        <mxCell id="103" value="" style="rounded=0;whiteSpace=wrap;html=1;strokeColor=default;fontSize=12;align=left;" parent="1" vertex="1">
          <mxGeometry x="70" y="-310" width="140" height="25" as="geometry" />
        </mxCell>
        <mxCell id="104" value="" style="rounded=0;whiteSpace=wrap;html=1;strokeColor=default;fontSize=12;align=left;" parent="1" vertex="1">
          <mxGeometry x="70" y="-285" width="140" height="25" as="geometry" />
        </mxCell>
        <mxCell id="105" value="READER" style="text;html=1;strokeColor=none;fillColor=none;align=center;verticalAlign=middle;whiteSpace=wrap;rounded=0;fontSize=12;" parent="1" vertex="1">
          <mxGeometry x="70" y="-360" width="60" height="25" as="geometry" />
        </mxCell>
        <mxCell id="106" value="DATE" style="text;html=1;strokeColor=none;fillColor=none;align=center;verticalAlign=middle;whiteSpace=wrap;rounded=0;fontSize=12;" parent="1" vertex="1">
          <mxGeometry x="200" y="-362.5" width="60" height="25" as="geometry" />
        </mxCell>
        <mxCell id="109" value="&lt;span style=&quot;font-size: 21px;&quot;&gt;A0&lt;/span&gt;" style="rounded=0;whiteSpace=wrap;html=1;strokeColor=default;fontSize=12;" parent="1" vertex="1">
          <mxGeometry x="270" y="-360" width="140" height="100" as="geometry" />
        </mxCell>
        <mxCell id="110" value="CONTEXT:" style="text;html=1;strokeColor=none;fillColor=none;align=left;verticalAlign=middle;whiteSpace=wrap;rounded=0;fontSize=12;" parent="1" vertex="1">
          <mxGeometry x="270" y="-360" width="75" height="20" as="geometry" />
        </mxCell>
        <mxCell id="111" value="А36" style="rounded=0;whiteSpace=wrap;html=1;strokeColor=default;fontSize=21;fillColor=#FFFFFF;" parent="1" vertex="1">
          <mxGeometry x="-500" y="280" width="180" height="100" as="geometry" />
        </mxCell>
        <mxCell id="112" value="" style="rounded=0;whiteSpace=wrap;html=1;strokeColor=default;fontSize=21;fillColor=#FFFFFF;" parent="1" vertex="1">
          <mxGeometry x="170" y="280" width="240" height="100" as="geometry" />
        </mxCell>
        <mxCell id="114" value="NODE:" style="text;html=1;strokeColor=none;fillColor=none;align=center;verticalAlign=middle;whiteSpace=wrap;rounded=0;fontSize=14;" parent="1" vertex="1">
          <mxGeometry x="-500" y="280" width="60" height="30" as="geometry" />
        </mxCell>
        <mxCell id="115" value="NUMBER" style="text;html=1;strokeColor=none;fillColor=none;align=center;verticalAlign=middle;whiteSpace=wrap;rounded=0;fontSize=14;" parent="1" vertex="1">
          <mxGeometry x="170" y="280" width="69" height="30" as="geometry" />
        </mxCell>
        <mxCell id="116" value="" style="rounded=0;whiteSpace=wrap;html=1;strokeColor=default;fontSize=14;fillColor=#FFFFFF;" parent="1" vertex="1">
          <mxGeometry x="330" y="360" width="80" height="20" as="geometry" />
        </mxCell>
        <mxCell id="117" value="TITLE:" style="text;html=1;strokeColor=none;fillColor=none;align=center;verticalAlign=middle;whiteSpace=wrap;rounded=0;fontSize=14;" parent="1" vertex="1">
          <mxGeometry x="-320" y="280" width="60" height="30" as="geometry" />
        </mxCell>
        <mxCell id="118" value="&lt;span style=&quot;font-size: 22px;&quot;&gt;Функция &quot;Составление графика уборки&quot;&lt;/span&gt;" style="text;html=1;strokeColor=none;fillColor=none;align=center;verticalAlign=middle;whiteSpace=wrap;rounded=0;fontSize=14;" parent="1" vertex="1">
          <mxGeometry x="-262.5" y="310" width="370" height="40" as="geometry" />
        </mxCell>
      </root>
    </mxGraphModel>
  </diagram>
  <diagram name="Страница — 2" id="ZamKSWHOK6p6iDO4orh9">
    <mxGraphModel dx="1624" dy="840" grid="1" gridSize="10" guides="1" tooltips="1" connect="1" arrows="1" fold="1" page="1" pageScale="1" pageWidth="3300" pageHeight="2339" math="0" shadow="0">
      <root>
        <mxCell id="0" />
        <mxCell id="1" parent="0" />
      </root>
    </mxGraphModel>
  </diagram>
</mxfile>
